<svg xmlns="http://www.w3.org/2000/svg" viewBox="0 0 533.4 220.89"><defs><style>.cls-1,.cls-6{fill:#3982f8;}.cls-1{opacity:0.24;}.cls-2{fill:#dddfe2;}.cls-3,.cls-7{fill:#34a853;}.cls-4{fill:#dadce0;}.cls-5,.cls-8{fill:#fbbc04;}.cls-7{opacity:0.21;}.cls-8{opacity:0.16;}</style></defs><g id="Layer_2" data-name="Layer 2"><g id="Layer_1-2" data-name="Layer 1"><path class="cls-1" d="M484.21,63.84H461.82a5,5,0,0,0-4.29,2.48l-1.95,3.37a5,5,0,0,0,0,5L457.53,78a4.94,4.94,0,0,0,4.29,2.48h22.39A4.94,4.94,0,0,0,488.5,78l1.95-3.36a5,5,0,0,0,0-5l-1.95-3.37A5,5,0,0,0,484.21,63.84Z"/><circle class="cls-2" cx="301.74" cy="71.92" r="1.42"/><circle class="cls-2" cx="306.87" cy="66.01" r="1.42"/><circle class="cls-2" cx="312.01" cy="60.09" r="1.42"/><circle class="cls-2" cx="317.14" cy="54.18" r="1.42"/><circle class="cls-2" cx="322.28" cy="48.26" r="1.42"/><circle class="cls-2" cx="317.14" cy="144.83" r="1.42"/><circle class="cls-2" cx="324" cy="148.62" r="1.42"/><circle class="cls-2" cx="330.86" cy="152.4" r="1.42"/><circle class="cls-2" cx="337.72" cy="156.18" r="1.42"/><path class="cls-3" d="M385.73,1.08,381,6.51a3.13,3.13,0,0,0,1.78,5.12L389.86,13a3.13,3.13,0,0,0,3.54-4.1L391.05,2.1A3.13,3.13,0,0,0,385.73,1.08Z"/><path class="cls-2" d="M95,110.6l-1.69,7a3.13,3.13,0,0,0,3.92,3.74l6.88-2a3.13,3.13,0,0,0,1.28-5.27l-5.19-5A3.13,3.13,0,0,0,95,110.6Z"/><rect class="cls-4" x="510.89" y="127.82" width="23.65" height="11.32" rx="5.66" transform="translate(19.13 327.01) rotate(-35.35)"/><rect class="cls-5" x="378.48" y="185" width="12.48" height="12.48" rx="3.05"/><circle class="cls-2" cx="307.58" cy="197.01" r="8.14"/><circle class="cls-3" cx="137.51" cy="197.55" r="8.14"/><circle class="cls-3" cx="128.89" cy="212.44" r="8.14"/><circle class="cls-2" cx="8.14" cy="161.16" r="8.14"/><path class="cls-6" d="M467.7,64.43h-7.06a1.62,1.62,0,0,0-1.41.82l-3.52,6.11a1.62,1.62,0,0,0,0,1.62l3.52,6.11a1.63,1.63,0,0,0,1.41.81h7.06a1.62,1.62,0,0,0,1.4-.81L472.63,73a1.62,1.62,0,0,0,0-1.62l-3.53-6.11A1.61,1.61,0,0,0,467.7,64.43Z"/><path class="cls-6" d="M485.31,64.43h-6.48A2.13,2.13,0,0,0,477,65.5l-3.24,5.6a2.13,2.13,0,0,0,0,2.13L477,78.84a2.12,2.12,0,0,0,1.84,1.06h6.48a2.12,2.12,0,0,0,1.84-1.06l3.24-5.61a2.13,2.13,0,0,0,0-2.13l-3.24-5.6A2.13,2.13,0,0,0,485.31,64.43Z"/><rect class="cls-7" x="115.88" y="195.94" width="34.16" height="18.11" rx="9.06" transform="matrix(-0.53, 0.85, -0.85, -0.53, 377.25, 199.51)"/><circle class="cls-2" cx="177.67" cy="98.18" r="1.42"/><circle class="cls-2" cx="185.18" cy="100.41" r="1.42"/><circle class="cls-2" cx="192.68" cy="102.65" r="1.42"/><circle class="cls-2" cx="200.19" cy="104.88" r="1.42"/><circle class="cls-2" cx="223.74" cy="172.03" r="1.42"/><circle class="cls-2" cx="219.37" cy="178.53" r="1.42"/><circle class="cls-2" cx="215.01" cy="185.03" r="1.42"/><circle class="cls-2" cx="210.64" cy="191.54" r="1.42"/><path class="cls-8" d="M106.86,6.28l-16,15.65a5,5,0,0,0-1.34,4.78l1,3.76A5,5,0,0,0,93.94,34l3.74,1a5,5,0,0,0,4.81-1.23l16-15.65a5,5,0,0,0,1.34-4.77l-1-3.77a4.93,4.93,0,0,0-3.46-3.55l-3.74-1A5,5,0,0,0,106.86,6.28Z"/><path class="cls-5" d="M95.46,18.25l-5,4.93A1.62,1.62,0,0,0,90,24.74l1.75,6.84a1.62,1.62,0,0,0,1.13,1.16l6.8,1.91a1.62,1.62,0,0,0,1.57-.41l5-4.93a1.64,1.64,0,0,0,.44-1.56L105,20.91a1.65,1.65,0,0,0-1.14-1.16L97,17.85A1.62,1.62,0,0,0,95.46,18.25Z"/><path class="cls-5" d="M105.75,8.2h0a7.72,7.72,0,0,0-2.09,7.45h0a7.72,7.72,0,0,0,5.4,5.53h0a7.74,7.74,0,0,0,7.5-1.92h0a7.75,7.75,0,0,0,2.09-7.44h0a7.76,7.76,0,0,0-5.41-5.54h0A7.74,7.74,0,0,0,105.75,8.2Z"/></g></g></svg>