<svg xmlns="http://www.w3.org/2000/svg" viewBox="0 0 153.22 152.83">
  <g data-name="Layer 2">
    <path d="M76.06 152.79c-10.79.19-22-.29-33-2.6-12.79-2.66-24.23-7.63-31.86-19-4.69-7-7.22-14.8-8.61-23C-.65 89.54-.62 70.72 1.43 51.91c1-9.37 3.11-18.54 7.75-27 5.27-9.5 13.27-15.67 23.38-19.28C45.24 1.1 58.48.11 71.76 0c9.56-.07 19.15.33 28.68 1.15 9.31.81 18.43 2.89 26.86 7.25 12.16 6.29 18.7 16.76 22.1 29.6a116.51 116.51 0 0 1 3.6 27.24c.27 12.87.56 25.76-1.37 38.55-1.74 11.53-4.68 22.6-12.65 31.65-5.41 6.12-12.24 10-19.9 12.44-13.83 4.48-28.16 5.12-43.02 4.91Z" data-name="Layer 1"/>
  </g>
</svg>
