<?xml version="1.0" standalone="no"?>
<!DOCTYPE svg PUBLIC "-//W3C//DTD SVG 1.1//EN" "http://www.w3.org/Graphics/SVG/1.1/DTD/svg11.dtd" >
<svg xmlns="http://www.w3.org/2000/svg">
<metadata>Generated by IcoMoon</metadata>
<defs>
<font id="icomoon" horiz-adv-x="1024">
<font-face units-per-em="1024" ascent="960" descent="-64" />
<missing-glyph horiz-adv-x="1024" />
<glyph unicode="&#x20;" horiz-adv-x="512" d="" />
<glyph unicode="&#xe900;" glyph-name="Barcode" d="M298.48 632.96c16.966 0 30.72-13.754 30.72-30.72v-308.446c0-16.97-13.754-30.72-30.72-30.72s-30.72 13.75-30.72 30.72v308.446c0 16.966 13.754 30.72 30.72 30.72zM568.959 632.96c16.966 0 30.72-13.754 30.72-30.72v-123.938c0-16.966-13.754-30.72-30.72-30.72s-30.72 13.754-30.72 30.72v123.938c0 16.966 13.754 30.72 30.72 30.72zM704.16 632.96c16.966 0 30.72-13.754 30.72-30.72v-73.405c0-16.966-13.754-30.72-30.72-30.72s-30.72 13.754-30.72 30.72v73.405c0 16.966 13.754 30.72 30.72 30.72zM433.68 475.521c16.966 0 30.72-13.754 30.72-30.72v-147.21c0-16.966-13.754-30.72-30.72-30.72s-30.72 13.754-30.72 30.72v147.21c0 16.966 13.755 30.72 30.72 30.72zM433.68 632.96c16.966 0 30.72-13.754 30.72-30.72v-38.815c0-16.966-13.754-30.72-30.72-30.72s-30.72 13.754-30.72 30.72v38.815c0 16.966 13.755 30.72 30.72 30.72zM653.201 765.44c0 16.966 13.754 30.72 30.72 30.72h45.47c94.794 0 171.635-76.838 171.635-171.634v-57.067c0-16.966-13.754-30.72-30.72-30.72-16.97 0-30.72 13.754-30.72 30.72v57.067c0 60.863-49.332 110.194-110.195 110.194h-45.47c-16.966 0-30.72 13.754-30.72 30.72zM274.034 734.72c-60.863 0-110.194-49.331-110.194-110.194v-57.067c0-16.966-13.754-30.72-30.72-30.72s-30.72 13.754-30.72 30.72v57.067c0 94.796 76.838 171.634 171.634 171.634h45.47c16.966 0 30.72-13.754 30.72-30.72s-13.754-30.72-30.72-30.72h-45.47zM133.12 359.199c16.966 0 30.72-13.754 30.72-30.72v-57.065c0-60.862 49.331-110.195 110.194-110.195h46.666c16.966 0 30.72-13.754 30.72-30.72s-13.754-30.72-30.72-30.72h-46.666c-94.796 0-171.634 76.841-171.634 171.635v57.065c0 16.966 13.754 30.72 30.72 30.72zM722.534 378.88c-51.978 0-94.134-42.156-94.134-94.134 0-52.023 42.164-94.171 94.134-94.171s94.134 42.148 94.134 94.171c0 51.978-42.16 94.134-94.134 94.134zM566.96 284.746c0 85.91 69.665 155.574 155.574 155.574s155.574-69.665 155.574-155.574c0-85.942-69.661-155.611-155.574-155.611-85.918 0-155.574 69.669-155.574 155.611zM785.777 214.983c11.985 12.005 31.437 12.026 43.446 0.041l62.845-62.726c12.009-11.985 12.026-31.437 0.041-43.446-11.985-12.005-31.437-12.026-43.446-0.041l-62.845 62.726c-12.009 11.985-12.026 31.437-0.041 43.446z" />
<glyph unicode="&#xe901;" glyph-name="office" d="M102.4 83.038c0 16.97 13.754 30.72 30.72 30.72h737.28c16.966 0 30.72-13.75 30.72-30.72 0-16.966-13.754-30.72-30.72-30.72h-737.28c-16.966 0-30.72 13.754-30.72 30.72zM252.32 729.627c0 62.996 51.056 114.053 114.052 114.053h270.842c62.964 0 114.012-51.066 114.012-114.053v-646.655c0-16.966-13.754-30.72-30.72-30.72s-30.72 13.754-30.72 30.72v646.655c0 29.073-23.56 52.613-52.572 52.613h-270.842c-29.064 0-52.612-23.549-52.612-52.613v-646.655c0-16.966-13.754-30.72-30.72-30.72s-30.72 13.754-30.72 30.72v646.655zM564.445 405.348c16.654 3.24 32.784-7.631 36.024-24.285l0.082-0.41c3.24-16.654-7.631-32.78-24.285-36.024-16.654-3.24-32.784 7.631-36.024 24.285l-0.082 0.41c-3.24 16.654 7.635 32.784 24.285 36.024zM427.299 405.348c16.654 3.24 32.78-7.631 36.020-24.285l0.082-0.41c3.24-16.654-7.635-32.784-24.289-36.024-16.65-3.24-32.78 7.635-36.021 24.289l-0.079 0.41c-3.241 16.65 7.633 32.78 24.287 36.020zM564.445 540.228c16.654 3.242 32.784-7.631 36.024-24.284l0.082-0.41c3.24-16.654-7.631-32.784-24.285-36.024s-32.784 7.631-36.024 24.285l-0.082 0.41c-3.24 16.654 7.635 32.782 24.285 36.023zM427.299 540.228c16.654 3.241 32.78-7.632 36.020-24.288l0.082-0.41c3.24-16.65-7.635-32.78-24.289-36.020-16.65-3.24-32.78 7.631-36.021 24.285l-0.079 0.41c-3.241 16.654 7.633 32.782 24.287 36.023zM564.445 678.149c16.654 3.242 32.784-7.631 36.024-24.285l0.082-0.41c3.24-16.654-7.631-32.782-24.285-36.024s-32.784 7.631-36.024 24.285l-0.082 0.41c-3.24 16.654 7.635 32.782 24.285 36.024zM427.299 678.149c16.654 3.241 32.78-7.632 36.020-24.286l0.082-0.41c3.24-16.654-7.635-32.782-24.289-36.022-16.65-3.241-32.78 7.632-36.021 24.286l-0.079 0.41c-3.241 16.654 7.633 32.782 24.287 36.022zM449.798 189.94c-0.029-0.061-0.037-0.106-0.037-0.184v-106.803c0-16.97-13.754-30.72-30.72-30.72-16.967 0-30.721 13.75-30.721 30.72v106.803c0 34.263 27.981 62.243 62.244 62.243h102.58c34.247 0 62.206-28.004 62.206-62.243v-106.803c0-16.97-13.754-30.72-30.72-30.72s-30.72 13.75-30.72 30.72v106.803c0 0.078-0.012 0.127-0.037 0.188-0.037 0.086-0.115 0.217-0.246 0.348s-0.258 0.205-0.336 0.238c-0.057 0.025-0.090 0.029-0.147 0.029h-102.58c-0.078 0-0.123-0.008-0.184-0.033-0.082-0.037-0.209-0.115-0.34-0.242-0.131-0.131-0.209-0.258-0.242-0.344zM689.758 570.56c0 16.966 13.754 30.72 30.72 30.72h51.491c49.127 0 89.506-39.775 89.506-89.501v-428.782c0-16.966-13.754-30.72-30.72-30.72-16.97 0-30.72 13.754-30.72 30.72v428.782c0 15.548-12.628 28.061-28.066 28.061h-51.491c-16.966 0-30.72 13.754-30.72 30.72zM236.343 539.84c-15.437 0-28.063-12.513-28.063-28.061v-428.782c0-16.966-13.754-30.72-30.72-30.72s-30.72 13.754-30.72 30.72v428.782c0 49.726 40.378 89.501 89.503 89.501h46.468c16.966 0 30.72-13.754 30.72-30.72s-13.754-30.72-30.72-30.72h-46.468z" />
<glyph unicode="&#xe902;" glyph-name="Calendar" d="M139.66 543.76c0 16.966 13.754 30.72 30.72 30.72h657.024c16.966 0 30.72-13.754 30.72-30.72s-13.754-30.72-30.72-30.72h-657.024c-16.966 0-30.72 13.754-30.72 30.72zM647.819 847.36c16.966 0 30.72-13.754 30.72-30.72v-121.306c0-16.966-13.754-30.72-30.72-30.72s-30.72 13.754-30.72 30.72v121.306c0 16.966 13.754 30.72 30.72 30.72zM349.94 847.36c16.966 0 30.72-13.754 30.72-30.72v-121.306c0-16.966-13.754-30.72-30.72-30.72s-30.72 13.754-30.72 30.72v121.306c0 16.966 13.754 30.72 30.72 30.72zM193.119 736.682c37.64 35.791 90.029 52.478 149.703 52.478h312.112c59.81 0 112.23-16.674 149.811-52.506 37.818-36.054 56.623-87.698 56.451-149.435 0-0.009 0-0.018 0-0.027v-336.296c0-61.743-18.891-113.435-56.709-149.549-37.605-35.91-90.018-52.687-149.873-52.687h-311.792c-59.858 0-112.314 17.142-149.918 53.6-37.755 36.606-56.664 88.924-56.664 151.429v333.59c0 61.771 19.004 113.386 56.879 149.402zM235.457 692.158c-22.987-21.858-37.777-55.823-37.777-104.878v-333.59c0-50.078 14.885-84.914 37.992-107.319 23.258-22.548 58.734-36.27 107.15-36.27h311.792c48.742 0 84.259 13.545 107.438 35.68 22.966 21.93 37.704 55.996 37.704 105.116v336.384l0.004 0.088c0.139 49.077-14.529 83.003-37.409 104.817-23.118 22.041-58.63 35.534-107.418 35.534h-312.112c-48.601 0-84.142-13.48-107.365-35.562zM468.201 326.238c0 16.97 13.754 30.72 30.72 30.72h0.025c16.97 0 30.72-13.75 30.72-30.72 0-16.966-13.75-30.72-30.72-30.72h-0.025c-16.966 0-30.72 13.754-30.72 30.72zM303.56 326.238c0 16.97 13.754 30.72 30.72 30.72h0.028c16.966 0 30.72-13.75 30.72-30.72 0-16.966-13.754-30.72-30.72-30.72h-0.028c-16.966 0-30.72 13.754-30.72 30.72zM632.439 326.238c0 16.97 13.754 30.72 30.72 30.72h0.029c16.966 0 30.72-13.75 30.72-30.72 0-16.966-13.754-30.72-30.72-30.72h-0.029c-16.966 0-30.72 13.754-30.72 30.72z" />
<glyph unicode="&#xe903;" glyph-name="Calling" d="M284.053 874.65c47.659-0.64 81.621-36.352 124.587-81.536 10.624-11.136 22.101-23.296 34.944-36.096 62.251-62.293 44.544-113.109 30.251-153.899-15.531-44.501-28.971-82.901 51.499-163.371s118.827-67.029 163.285-51.371c40.832 14.251 91.52 32.085 153.899-30.208 12.672-12.672 24.619-24.021 35.712-34.56 45.355-43.179 81.195-77.269 81.799-125.056 0.463-40.704-24.284-82.261-85.383-143.36l-27.051 18.347 22.912-22.315c-13.525-13.867-49.493-50.816-119.936-51.243h-1.28c-106.325 0-244.949 84.651-412.032 251.691-167.765 167.723-252.544 306.773-251.908 413.312 0.388 70.4 37.294 106.453 51.161 119.979l1.184 1.293 2.87 2.889c61.227 61.227 103.296 86.4 143.488 85.504zM283.243 810.65h-0.341c-19.16 0-48.258-19.2-88.839-58.62l-8.149-8.003 0.092 0.020c0.051 0-0.696-0.799-1.883-2.009l-2.853-2.855c-10.325-10.027-31.701-30.891-31.917-74.539-0.339-61.056 39.81-174.421 233.133-367.701 192.384-192.341 305.579-232.96 366.805-232.96h0.896c43.648 0.256 64.469 21.632 74.496 31.915 3.029 3.115 5.504 5.461 7.253 6.869 42.539 42.795 64.299 74.581 64.087 95.019-0.258 20.821-26.156 45.397-61.954 79.488-11.392 10.795-23.765 22.613-36.821 35.669-33.877 33.749-50.56 27.989-87.467 15.019-50.987-17.877-120.832-42.368-229.675 66.56-108.885 108.843-84.48 178.688-66.688 229.717 12.885 36.864 18.773 53.632-15.061 87.509-13.227 13.227-25.131 25.771-36.096 37.291-33.877 35.584-58.325 61.312-79.019 61.611zM650.522 722.863c88.789-17.237 157.355-85.76 174.635-174.592 3.371-17.408-7.936-34.176-25.259-37.547-2.091-0.384-4.139-0.597-6.187-0.597-15.019 0-28.373 10.581-31.36 25.856-12.288 63.147-60.971 111.829-124.032 124.075-17.365 3.371-28.672 20.139-25.301 37.504s20.437 28.715 37.504 25.301zM647.966 874.406c173.995-19.328 309.12-154.283 328.619-328.235 1.963-17.579-10.667-33.408-28.203-35.371-1.195-0.128-2.432-0.213-3.627-0.213-16.085 0-29.909 12.075-31.744 28.416-16.171 144.043-128.043 255.829-272.128 271.829-17.536 1.963-30.208 17.749-28.245 35.328 1.92 17.536 17.579 30.464 35.328 28.245z" />
<glyph unicode="&#xe904;" glyph-name="dashboard" d="M628.22 862.96c16.966 0 30.72-13.754 30.72-30.72v-58.206c0-16.966-13.754-30.72-30.72-30.72s-30.72 13.754-30.72 30.72v58.206c0 16.966 13.754 30.72 30.72 30.72zM843.964 795.756c11.997-11.997 11.997-31.448 0-43.445l-41.161-41.158c-11.997-11.997-31.445-11.997-43.442 0s-11.997 31.448 0 43.445l41.157 41.158c11.997 11.997 31.449 11.997 43.446 0zM791.921 580.012c0 16.966 13.75 30.72 30.72 30.72h58.204c16.966 0 30.72-13.754 30.72-30.72s-13.754-30.718-30.72-30.718h-58.204c-16.97 0-30.72 13.752-30.72 30.718zM218.831 719.49c-27.497-25.607-44.751-63.435-44.751-112.931v-326.483c0-49.476 17.252-87.282 44.746-112.873 27.743-25.825 68.447-41.533 119.114-41.533h307.651c50.627 0 91.337 15.77 119.099 41.644 27.521 25.653 44.761 63.48 44.761 112.763v121.721c0 16.966 13.75 30.72 30.72 30.72 16.966 0 30.72-13.754 30.72-30.72v-121.721c0-64.504-23.044-119.243-64.311-157.704-41.026-38.24-97.604-58.143-160.989-58.143h-307.651c-63.347 0-119.933 19.796-160.976 57.999-41.292 38.437-64.324 93.192-64.324 157.848v326.483c0 64.668 23.029 119.441 64.319 157.893 41.042 38.222 97.63 58.028 160.981 58.028h102.851c16.966 0 30.72-13.754 30.72-30.72s-13.754-30.72-30.72-30.72h-102.851c-50.662 0-91.365-15.713-119.109-41.55zM461.681 599.4c0 16.966 13.754 30.72 30.72 30.72h155.218c16.966 0 30.72-13.754 30.72-30.72v-155.218c0-16.966-13.754-30.72-30.72-30.72-16.97 0-30.72 13.754-30.72 30.72v124.498h-124.498c-16.966 0-30.72 13.754-30.72 30.72zM650.605 624.475c13.849-9.799 17.134-28.971 7.336-42.821-96.87-136.915-256.568-226.4-437.168-226.4-27.967 0-55.452 2.146-82.296 6.291-16.767 2.589-28.261 18.28-25.672 35.049s18.28 28.262 35.048 25.674c23.752-3.67 48.103-5.575 72.92-5.575 159.819 0 301.164 79.11 387.012 200.446 9.798 13.85 28.971 17.134 42.82 7.335z" />
<glyph unicode="&#xe905;" glyph-name="Delivery" d="M430.42 829.927c40.337 23.244 90.006 23.244 130.347 0l232.641-134.317c40.284-23.295 65.176-66.311 65.176-112.925v-268.607c0-46.563-24.863-89.625-65.184-112.89l-232.608-134.296c0 0 0 0 0 0-17.83-10.297-37.482-16.044-57.348-17.244-2.503-0.655-5.128-1.008-7.836-1.008s-5.329 0.348-7.827 1.008c-19.878 1.192-39.543 6.939-57.385 17.24 0 0 0 0 0 0l-232.612 134.3c-40.32 23.265-65.184 66.327-65.184 112.89v268.607c0 22.297 5.691 43.768 16.037 62.652 0.528 1.293 1.15 2.565 1.869 3.807 0.847 1.464 1.797 2.832 2.834 4.1 11.048 17.171 26.148 31.79 44.418 42.356l232.662 134.327zM194.271 588.336c-0.153-1.87-0.231-3.755-0.231-5.652v-268.607c0-24.613 13.156-47.387 34.449-59.671l232.627-134.308c1.241-0.717 2.503-1.393 3.772-2.028v313.717l-270.617 156.548zM526.328 431.981v-313.893c1.262 0.627 2.507 1.298 3.736 2.007l232.624 134.308c21.295 12.284 34.456 35.062 34.456 59.675v268.607c0 1.96-0.082 3.907-0.246 5.838l-98.64-57.069v-94.993c0-16.966-13.75-30.72-30.72-30.72-16.966 0-30.72 13.754-30.72 30.72v59.445l-110.49-63.926zM667.12 584.421l97.841 56.607c-0.745 0.471-1.503 0.929-2.273 1.374l-232.595 134.291c-21.352 12.302-47.641 12.304-68.989 0.005-0.004-0.002 0 0.002 0 0l-63.241-36.512 269.258-155.764zM336.452 704.73l269.322-155.801-110.334-63.835-269.378 155.832c0.801 0.509 1.615 1.002 2.441 1.48-0.004-0.002 0.004 0.002 0 0l107.949 62.325z" />
<glyph unicode="&#xe906;" glyph-name="Delivery-Box" d="M411.738 555.314c-5.325-3.226-5.248-10.977 0.139-14.096l108.442-62.786c3.809-2.204 8.507-2.204 12.313 0l305.185 176.702c4.538 2.627 5.489 8.798 1.683 12.404-6.201 5.874-12.976 11.193-20.529 15.612l-96.444 55.543c-2.585 1.49-5.779 1.454-8.331-0.093l-302.457-183.287zM335.086 585.683c2.59-1.5 5.793-1.469 8.353 0.083l302.214 183.179c5.329 3.231 5.243 10.993-0.156 14.104l-59.015 34c-37.151 21.709-83.313 21.668-120.177 0.041l-232.777-133.98c-7.433-4.373-14.12-9.617-20.252-15.408-3.816-3.604-2.875-9.785 1.667-12.417l120.142-69.603zM563.036 425.038c-3.797-2.2-6.132-6.25-6.132-10.637v-343.781c0-5.378 5.104-9.298 10.158-7.467 6.627 2.4 13.087 5.407 19.292 9.028l232.776 133.98c36.987 21.668 59.965 61.563 59.965 104.12v268.697c0 5.462-0.545 10.838-1.417 16.146-0.893 5.431-7 8.059-11.764 5.301l-302.879-175.386zM495.464 414.732c0 4.383-2.335 8.434-6.132 10.633l-107.113 62.030c-5.461 3.166-12.297-0.774-12.297-7.086v-55.218c0-16.957-13.763-30.72-30.72-30.72s-30.72 13.763-30.72 30.72v100.299c0 2.925-1.558 5.625-4.087 7.090l-117.687 68.131c-4.753 2.752-10.843 0.139-11.729-5.281-0.879-5.377-1.418-10.827-1.418-16.35v-268.698c0-42.516 22.979-82.412 60.129-104.161l232.489-133.898c6.152-3.576 12.558-6.582 19.12-8.987 5.054-1.855 10.166 2.064 10.166 7.451v344.048z" />
<glyph unicode="&#xe907;" glyph-name="Delivery-edit" d="M469.783 560.832l102.597-33.341c3.662-1.118 7.483-1.561 11.244-1.319 3.4 0.221 6.758 0.979 9.916 2.261 1.020 0.418 2.023 0.897 3.002 1.417 1.18 0.641 2.318 1.362 3.4 2.141 7.979 5.74 12.702 15.16 12.661 25l-0.541 233.020 23.298 0.040c50.762 0.4 89.62-17.2 116.003-45.46 26.599-28.28 42.82-70.040 42.938-122.060v-0.42l0.741-104.86c0.119-16.798 14-30.298 30.958-30.298 4.522 0 8.823 0.979 12.681 2.761 3.178 1.479 6.062 3.478 8.54 5.878 1.020 0.999 1.978 2.081 2.859 3.199 4.063 5.243 6.459 11.801 6.402 18.883l-0.741 105.259c-0.258 64.56-20.558 122.14-59.519 163.44-39.24 42.18-95.060 65.52-160.981 65.12l-51.261-0.080-1.257 0.060h-0.659c-0.283 0.020-0.582 0.040-0.881 0.020-0.7 0-1.401-0.040-2.101-0.080l-277.619-0.34c-65.78-0.4-121.48-23.76-160.56-65.94-38.82-42.18-59.020-99.54-58.86-164.24l0.74-314.581c0.16-64.721 20.48-122.061 59.52-163.84 39.24-42.201 95.060-65.54 161-65.118h106.26c16.959 0 30.718 13.5 30.718 30.72 0 1.479-0.098 2.937-0.299 4.379-0.34 2.281-0.918 4.502-1.741 6.599-0.86 2.241-1.999 4.362-3.359 6.32-1.561 2.261-3.4 4.301-5.48 6.083-5.358 4.559-12.28 7.34-19.839 7.34h-106.42c-9.8-0.082-19.14 0.52-28.040 1.72-3.98 0.537-7.88 1.217-11.68 1.999-2.66 0.541-5.28 1.139-7.84 1.798-10.48 2.703-20.24 6.32-29.24 10.801-15.18 7.541-28.26 17.42-39.2 29.139-26.58 28.66-42.8 70.443-42.92 122.061l-0.74 314.581c-0.12 52.020 15.94 93.78 42.48 122.46 26.3 28.26 65.12 45.88 115.62 46.28l24.26 0.040 0.28-233.5c0-4.56 1.020-9.020 2.92-13.080 2.18-4.7 5.54-8.84 9.82-11.92 7.98-5.741 18.26-7.359 27.6-4.078l103.322 33.738zM387.281 789.732l163.34 0.2 0.438-190.76-71.84 23.36c-6.218 2.040-12.939 2.040-19.157 0l-72.562-23.98-0.22 191.18zM810.963 210.051l-97.563-107.721c-1.937-2.159-3.94-4.239-6.021-6.259-2.617-2.519-5.358-4.919-8.18-7.201-7.258-5.841-15.18-10.838-23.597-14.881-10.060-4.837-20.82-8.298-32.002-10.158l-37.478-6.14c-47.542-7.782-89.362 31.539-84.201 79.458l4.162 38.502c1.86 17.637 7.5 34.279 16.4 49.099 3.92 6.541 8.458 12.718 13.718 18.481l101.519 111.919c1.061 1.561 2.281 3.019 3.662 4.399 0.598 0.602 1.241 1.18 1.88 1.72l40.641 44.581c30.839 33.579 82.78 35.222 116.081 4.502l34.398-31.961c33.3-30.72 35.361-82.723 4.502-115.9l-47.919-52.441zM813.621 303.854l0.18 0.418c3.338 3.518 5.14 7.959 5.439 12.481 0.422 6.001-1.819 12.161-6.599 16.601l-34.402 31.941c-8.438 7.799-21.5 7.377-29.041-0.823l-23.437-25.838 62.599-62.562 25.26 27.783zM746.963 230.572l-62.521 62.501-82.579-90.8-0.082-0.201c-8.18-9.56-13.361-20.82-14.619-32.981l-4.182-38.498c-0.479-4.44 1.72-8.442 5.14-10.641 2.241-1.438 5.001-2.118 7.881-1.638l37.478 6.14c3.523 0.659 6.943 1.597 10.281 2.818l2.040 0.803 1.499 0.618c7.741 3.379 14.742 8.319 20.521 14.598l0.082 0.401 79.061 86.88z" />
<glyph unicode="&#xe908;" glyph-name="copy" d="M296.092 680.959h179.158c26.055 0 50.983-10.621 69.042-29.383l0.029-0.030 120.23-125.251c17.129-17.834 26.698-41.599 26.698-66.314v-258.871c0.492-81.658-63.803-149.127-145.494-152.424-0.414-0.016-0.827-0.025-1.241-0.025l-136.795 0.004c-55.14 0.004-108.857 0.008-115.229 0.053-82.557 1.802-148.072 70.083-146.461 152.609v332.939l0.009 0.738c1.955 81.372 68.622 146.269 150.055 145.955zM543.85 110.1c48.321 2.253 86.286 42.283 85.959 90.706v259.174c0 8.839-3.424 17.355-9.568 23.753l-120.218 125.236c-0.004 0.005 0.004-0.005 0 0-6.488 6.735-15.446 10.55-24.773 10.55h-179.353c-47.866 0.206-87.098-37.841-88.429-85.649v-332.858l-0.007-0.672c-1.064-48.751 37.609-89.145 86.37-90.206l0.608-0.020c-0.237 0.008 24.576 0.004 59.018 0 19.721-0.004 42.6-0.008 65.743-0.008l124.649-0.004zM462.41 847.358h179.253c26.030 0 51.18-10.818 69.173-29.394l0.123-0.127 119.792-125.123c18.014-18.163 26.751-42.501 26.751-66.495v-258.623c0.938-81.781-63.836-149.418-145.449-152.515-0.389-0.016-0.778-0.025-1.167-0.025h-50.373c-16.966 0-30.72 13.754-30.72 30.72s13.754 30.72 30.72 30.72h49.75c48.3 2.122 86.422 42.332 85.799 90.518l-0.004 0.397 0.004 258.807c0 9.447-3.453 17.75-9.015 23.312l-0.471 0.478-119.874 125.211c-0.016 0.018-0.033 0.036-0.053 0.054-6.554 6.738-15.815 10.645-24.986 10.645h-179.532c-47.727 0.294-86.856-37.632-88.291-85.56v-49.988c0-16.966-13.754-30.72-30.72-30.72s-30.72 13.754-30.72 30.72v50.414l0.010 0.795c2.102 81.229 68.451 146.228 150 145.779zM633.278 845.44c16.97 0 30.72-13.754 30.72-30.72v-104.695c0-34.202 27.623-61.883 61.743-61.979h99.152c16.97 0 30.72-13.754 30.72-30.72s-13.75-30.72-30.72-30.72h-99.267c-68.047 0.159-123.068 55.367-123.068 123.419v104.695c0 16.966 13.754 30.72 30.72 30.72zM466.878 679.040c16.97 0 30.72-13.754 30.72-30.72v-104.695c0-34.169 27.632-61.882 61.743-61.981h99.115c16.966 0 30.72-13.75 30.72-30.72 0-16.966-13.754-30.72-30.72-30.72h-99.23c-68.055 0.16-123.068 55.419-123.068 123.421v104.695c0 16.966 13.754 30.72 30.72 30.72z" />
<glyph unicode="&#xe909;" glyph-name="Error" d="M544.482 393.242c0-17.664-14.336-32-32-32s-32 14.336-32 32v128.512c0 17.662 14.336 31.998 32 31.998s32-14.336 32-31.998v-128.512zM512.397 232.346c-17.664 0-32 13.312-32 30.976v2.091c0 17.664 14.336 32 32 32s32-14.336 32-32c0-17.664-14.336-33.067-32-33.067zM903.266 240.068l-296.96 521.214c-19.157 33.536-53.632 53.632-92.245 53.717h-0.213c-38.443 0-72.875-19.925-92.076-53.248l-300.715-521.172c-19.243-33.28-19.243-73.088-0.043-106.368 19.2-33.323 53.675-53.163 92.117-53.163h597.676c38.357 0 72.704 19.755 91.989 52.949 19.285 33.109 19.456 72.789 0.469 106.069z" />
<glyph unicode="&#xe90a;" glyph-name="Filter" d="M102.4 695.136c0 79.217 64.208 143.424 143.424 143.424h511.87c79.217 0 143.426-64.208 143.426-143.424v-57.269c0-53.295-22.495-104.082-61.927-139.925l-206.279-203.973c-0.328-0.324-0.664-0.643-1.008-0.95-7.16-6.468-11.231-15.647-11.231-25.227v-83.493c0-39.010-23.745-74.142-60.072-88.568l-78.995-31.47c0-0.004 0 0 0 0-62.575-24.936-130.605 21.164-130.605 88.556v135.381c0 8.741-3.385 17.154-9.409 23.454l-182.551 162.509c-0.449 0.401-0.886 0.811-1.311 1.237-35.391 35.439-55.332 83.494-55.332 133.655v86.082zM245.824 777.12c-45.284 0-81.984-36.7-81.984-81.984v-86.082c0-33.564 13.231-65.752 36.765-89.636l182.614-162.566c0.444-0.393 0.876-0.803 1.296-1.221 17.879-17.879 27.928-42.152 27.928-67.432v-135.381c0-23.953 24.187-40.342 46.42-31.482l79.032 31.486c12.849 5.1 21.34 17.564 21.34 31.478v83.493c0 26.751 11.252 52.253 30.925 70.308l206.311 204.005c0.336 0.331 0.68 0.653 1.028 0.968 26.862 24.229 42.181 58.665 42.181 94.794v57.269c0 45.284-36.7 81.984-81.986 81.984h-511.87z" />
<glyph unicode="&#xe90b;" glyph-name="Grid" d="M223.15 785.92c-32.759 0-59.31-26.551-59.31-59.31v-106.66c0-32.759 26.551-59.31 59.31-59.31h106.66c32.759 0 59.31 26.551 59.31 59.31v106.66c0 32.759-26.551 59.31-59.31 59.31h-106.66zM102.4 726.61c0 66.691 54.059 120.75 120.75 120.75h106.66c66.691 0 120.75-54.059 120.75-120.75v-106.66c0-66.691-54.059-120.75-120.75-120.75h-106.66c-66.691 0-120.75 54.059-120.75 120.75v106.66zM673.71 335.36c-32.76 0-59.31-26.55-59.31-59.31v-106.66c0-32.76 26.55-59.31 59.31-59.31h106.66c32.76 0 59.31 26.55 59.31 59.31v106.66c0 32.76-26.55 59.31-59.31 59.31h-106.66zM552.96 276.050c0 66.691 54.059 120.75 120.75 120.75h106.66c66.691 0 120.75-54.059 120.75-120.75v-106.66c0-66.691-54.059-120.75-120.75-120.75h-106.66c-66.691 0-120.75 54.059-120.75 120.75v106.66zM276.48 335.36c-62.21 0-112.64-50.43-112.64-112.64s50.43-112.64 112.64-112.64c62.21 0 112.64 50.43 112.64 112.64s-50.43 112.64-112.64 112.64zM102.4 222.72c0 96.141 77.938 174.080 174.080 174.080s174.080-77.939 174.080-174.080c0-96.141-77.938-174.080-174.080-174.080s-174.080 77.939-174.080 174.080zM700.625 833.582c29.61 16.962 67.273 6.665 84.214-22.823l0.029-0.050 108.073-188.912c0.004-0.007 0.008-0.014 0.012-0.020 5.419-9.454 8.159-20.059 8.159-30.754 0-34.14-27.693-61.685-61.727-61.685h-216.351c-10.768 0-21.377 2.837-30.659 8.129l-0.111 0.064c-29.532 17.003-39.748 54.662-22.794 84.247zM569.471 621.78l108.253 188.941c0 0.002 0 0.004 0.004 0.006 5.513 9.628 13.459 17.448 22.888 22.851zM731.247 780.31c0-0.001-0.029-0.009-0.082-0.041l-0.008-0.004c-0.074-0.041-0.106-0.072-0.123-0.087l-108.253-188.945c-0.078-0.134-0.070-0.296 0.078-0.413l0.070-0.023c0.061-0.016 0.102-0.019 0.106-0.019 0 0 0 0 0 0h216.351c0.066 0 0.098 0.006 0.102 0.007l0.020 0.006c0.016 0.007 0.053 0.027 0.098 0.071s0.061 0.077 0.061 0.079zM731.562 780.158c-0.029 0.048-0.045 0.068-0.049 0.072l-0.016 0.014c-0.012 0.011-0.053 0.036-0.119 0.054s-0.111 0.016-0.119 0.014l-0.012-0.002zM731.042 780.189c-0.004-0.002-0.004-0.005-0.004-0.006l0.004 0.006z" />
<glyph unicode="&#xe90c;" glyph-name="bar" d="M512 234.667c-47.061 0-85.333-38.272-85.333-85.333s38.272-85.333 85.333-85.333c47.061 0 85.333 38.272 85.333 85.333s-38.272 85.333-85.333 85.333zM512 661.333c47.061 0 85.333 38.272 85.333 85.333s-38.272 85.333-85.333 85.333c-47.061 0-85.333-38.272-85.333-85.333s38.272-85.333 85.333-85.333zM512 533.333c-47.061 0-85.333-38.272-85.333-85.333s38.272-85.333 85.333-85.333c47.061 0 85.333 38.272 85.333 85.333s-38.272 85.333-85.333 85.333z" />
<glyph unicode="&#xe90d;" glyph-name="login" d="M870.453 342.958c16.97 0 30.72-13.75 30.72-30.72v-64.59c0-104.997-85.152-190.136-190.177-190.136h-52.797c-16.966 0-30.72 13.75-30.72 30.72 0 16.966 13.754 30.72 30.72 30.72h52.797c71.107 0 128.737 57.643 128.737 128.696v64.59c0 16.97 13.754 30.72 30.72 30.72zM133.080 342.958c16.966 0 30.72-13.75 30.72-30.72v-64.59c0-71.053 57.634-128.696 128.736-128.696h51.488c16.966 0 30.72-13.754 30.72-30.72 0-16.97-13.754-30.72-30.72-30.72h-51.488c-105.026 0-190.176 85.139-190.176 190.136v64.59c0 16.97 13.754 30.72 30.72 30.72zM292.536 794.8c-71.108 0-128.736-57.609-128.736-128.696v-64.594c0-16.966-13.754-30.72-30.72-30.72s-30.72 13.754-30.72 30.72v64.594c0 105.040 85.156 190.136 190.176 190.136h52.797c16.966 0 30.72-13.754 30.72-30.72s-13.754-30.72-30.72-30.72h-52.797zM628.761 825.52c0 16.966 13.754 30.72 30.72 30.72h51.487c105.021 0 190.177-85.096 190.177-190.136v-64.594c0-16.966-13.754-30.72-30.72-30.72s-30.72 13.754-30.72 30.72v64.594c0 71.087-57.631 128.696-128.737 128.696h-51.487c-16.966 0-30.72 13.754-30.72 30.72zM360.92 658.64c16.966 0 30.72-13.754 30.72-30.72v-25.068c0-16.966-13.754-30.72-30.72-30.72s-30.72 13.754-30.72 30.72v25.068c0 16.966 13.754 30.72 30.72 30.72zM642.642 658.64c16.966 0 30.72-13.754 30.72-30.72v-25.068c0-16.966-13.754-30.72-30.72-30.72s-30.72 13.754-30.72 30.72v25.068c0 16.966 13.754 30.72 30.72 30.72zM520.921 604.72c16.966 0 30.72-13.754 30.72-30.72v-80.727c0-13.804-2.138-27.976-9.175-41.308-7.074-13.398-17.666-23.253-30.089-30.908l-12.149-7.897c-14.225-9.249-33.251-5.214-42.5 9.011s-5.214 33.251 9.011 42.5l12.485 8.114c0.242 0.16 0.487 0.311 0.737 0.463 5.677 3.469 7.41 5.964 8.172 7.401 0.868 1.647 2.068 5.018 2.068 12.624v80.727c0 16.966 13.754 30.72 30.72 30.72zM337.19 364.548c10.774 13.103 30.133 14.995 43.239 4.223 43.741-35.955 84.303-51.888 122.167-52.040 37.708-0.152 77.566 15.319 120.091 51.663 12.898 11.022 32.289 9.503 43.311-3.396s9.503-32.289-3.396-43.311c-50.459-43.123-104.047-66.621-160.252-66.396-56.046 0.225-109.854 24.027-160.937 66.015-13.106 10.777-14.997 30.134-4.223 43.241z" />
<glyph unicode="&#xe90e;" glyph-name="Money" d="M294.545 805.924c53.95 41.78 115.669 53.509 181.058 28.098 50.627-19.684 98.419-33.093 148.234-30.285 6.984 0.409 25.633 2.575 43.844 4.837 8.831 1.097 17.162 2.166 23.29 2.961l10.011 1.31c10.994 1.461 21.922-3.12 28.59-11.983 6.672-8.863 8.045-20.633 3.592-30.793l-67.412-153.924c3.113-4.856 6.238-9.725 9.372-14.606 23.675-36.878 47.776-74.425 70.463-112.182 0 0-0.004 0 0 0 45.638-75.94 99.406-175.034 57.094-280.556 0-0.004 0.004 0 0 0-24.65-61.501-72.712-101.327-127.312-125.616-54.235-24.13-116.269-33.649-173.146-34.546-0.324-0.008-0.647-0.008-0.971 0-56.857 0.897-118.882 10.416-173.111 34.546-54.596 24.289-102.657 64.115-127.309 125.616-42.309 105.517 11.457 204.62 57.098 280.556 21.251 35.369 43.842 70.459 66.070 104.986 4.35 6.756 8.685 13.49 12.994 20.2l-72.333 135.358c-6.788 12.702-3.84 28.414 7.089 37.793l0.159 0.136 0.306 0.26 1.074 0.901c0.927 0.773 2.283 1.893 4.117 3.382 3.667 2.978 9.261 7.445 17.14 13.552zM330.877 756.349l68.792-128.731c5.234-9.795 4.774-21.652-1.203-31.012-7.748-12.134-15.505-24.183-23.233-36.187-22.081-34.301-43.922-68.224-64.639-102.704-47.294-78.692-82.398-152.076-52.736-226.050 17.233-42.992 51.209-72.749 95.257-92.348 44.277-19.698 97.313-28.377 148.623-29.237 51.331 0.86 104.374 9.54 148.656 29.241 44.052 19.595 78.025 49.349 95.261 92.34 29.659 73.974-5.439 147.362-52.732 226.050-22.172 36.897-45.642 73.459-69.255 110.248-6.177 9.619-12.362 19.254-18.534 28.915-5.526 8.643-6.369 19.472-2.257 28.868l52.31 119.436c-11.321-1.317-21.856-2.433-27.804-2.78l-0.053-0.003c-63.033-3.561-120.685 13.636-173.982 34.358zM330.877 756.349c0.421 0.327 0.85 0.66 1.287 0.999l-1.287-0.999zM332.164 757.348c38.264 29.627 77.465 36.395 121.185 19.406l-121.185-19.406zM342.708 619.676c3.801 16.535 20.286 26.858 36.821 23.057 81.631-18.766 163.047-18.766 244.681 0 16.531 3.801 33.018-6.522 36.819-23.057s-6.521-33.020-23.056-36.821c-90.69-20.848-181.518-20.848-272.208 0-16.535 3.801-26.857 20.286-23.056 36.821z" />
<glyph unicode="&#xe90f;" glyph-name="Key" d="M282.203 677.307c42.745 42.745 114.997 59.638 159.912 14.724l0.004-0.006c12.251-12.258 15.057-27.794 14.021-40.606-0.987-12.213-5.46-23.926-10.564-33.921-10.318-20.204-27.23-41.115-45.145-58.778-17.941-17.687-39.023-34.218-59.111-44.368-9.917-5.009-21.44-9.417-33.337-10.535-12.269-1.155-28.099 1.085-40.548 13.533-44.922 44.924-28.009 117.18 14.769 159.957zM393.832 652.228c-13.997 8.046-42.013 7.806-68.185-18.366-25.845-25.845-26.439-53.441-18.747-67.625 1.767 0.64 4.001 1.582 6.715 2.953 12.606 6.368 28.58 18.394 43.68 33.281 15.125 14.911 27.24 30.591 33.559 42.966 1.426 2.793 2.366 5.050 2.978 6.79zM539.947 730.123c-86.049 86.049-225.562 86.049-311.611 0s-86.049-225.562 0-311.611c63.771-63.771 156.892-80.364 235.937-49.545 11.37 4.432 24.281 1.716 32.903-6.918l46.019-46.1 70.529-0.053c15.303-0.008 28.262-11.28 30.396-26.431l10.080-71.5 60.686-2.175c15.204-0.541 27.718-12.132 29.426-27.251l7.881-69.718h87.47v102.195l-242.467 242.598c-8.532 8.54-11.276 21.283-7.008 32.575 29.716 78.626 12.935 170.759-50.242 233.934zM184.892 773.568c110.042 110.042 288.458 110.042 398.497 0 75.817-75.816 99.287-184.085 70.722-279.984l238.002-238.133c5.759-5.759 8.991-13.57 8.991-21.717v-145.633c0-16.966-13.754-30.72-30.72-30.72h-145.637c-15.63 0-28.77 11.739-30.523 27.271l-7.987 70.685-59.961 2.15c-14.885 0.532-27.242 11.665-29.319 26.411l-9.949 70.578-56.586 0.045c-8.147 0.004-15.958 3.248-21.717 9.015l-41.394 41.468c-96.546-29.745-205.951-6.402-282.417 70.066-110.042 110.039-110.042 288.455 0 398.497z" />
<glyph unicode="&#xe910;" glyph-name="Ringtone" d="M725.922 196.71h-448.266c-20.924-0.012-41.513 5.263-59.852 15.34-18.34 10.072-33.836 24.617-45.053 42.279-11.216 17.666-17.789 37.876-19.105 58.761-1.316 20.881 2.666 41.759 11.575 60.69l19.087 40.591c11.652 24.814 17.706 51.884 17.735 79.299v54.026c0.098 79.46 31.711 155.636 87.905 211.815s132.382 87.772 211.84 87.848c8.147 0 15.962-3.237 21.721-8.998 5.763-5.761 8.999-13.575 8.999-21.722s-3.236-15.961-8.999-21.722c-5.759-5.761-13.574-8.998-21.721-8.998-63.164-0.065-123.725-25.183-168.393-69.843s-69.797-105.216-69.872-168.38v-54.026c-0.037-36.467-8.105-72.475-23.633-105.472l-19.005-40.55c-4.508-9.568-6.527-20.12-5.865-30.675s3.982-20.771 9.65-29.7c5.668-8.929 13.502-16.282 22.773-21.373s19.676-7.758 30.253-7.75h448.267c10.572 0 20.972 2.671 30.237 7.762 9.265 5.095 17.097 12.448 22.757 21.377 5.665 8.929 8.978 19.141 9.638 29.696 0.659 10.551-1.356 21.098-5.861 30.663l-19.046 40.591c-15.458 33.001-23.511 68.989-23.593 105.431v53.985c0 8.144 3.228 15.956 8.978 21.722s13.558 9.017 21.701 9.039c8.147 0 15.962-3.237 21.721-8.998 5.763-5.761 8.999-13.575 8.999-21.722v-53.985c0.053-27.423 6.103-54.505 17.736-79.34l19.087-40.591c8.897-18.932 12.87-39.801 11.551-60.674-1.319-20.877-7.889-41.083-19.1-58.741-11.207-17.658-26.694-32.203-45.023-42.283-18.33-10.076-38.908-15.364-59.822-15.372zM686.821 620.238c-20.091 0-39.731 5.958-56.439 17.119-16.703 11.162-29.721 27.027-37.409 45.588s-9.699 38.986-5.784 58.69c3.92 19.705 13.595 37.805 27.804 52.011 14.205 14.206 32.305 23.881 52.011 27.801s40.129 1.908 58.692-5.781c18.559-7.689 34.423-20.708 45.584-37.413s17.121-36.345 17.121-56.435c-0.020-26.934-10.732-52.759-29.778-71.805s-44.868-29.755-71.803-29.776zM686.821 761.96c-7.938 0-15.7-2.354-22.303-6.765-6.599-4.411-11.747-10.68-14.782-18.015-3.039-7.335-3.834-15.406-2.286-23.192s5.374-14.939 10.985-20.553c5.616-5.614 12.767-9.437 20.554-10.985s15.856-0.754 23.192 2.284c7.336 3.038 13.607 8.183 18.014 14.785 4.411 6.601 6.767 14.362 6.767 22.301-0.020 10.639-4.26 20.837-11.784 28.36-7.52 7.523-17.715 11.759-28.357 11.781zM501.854 48.624c-41.804 0.053-81.875 16.687-111.432 46.252-29.556 29.561-46.179 69.64-46.223 111.444 0 8.147 3.236 15.962 8.998 21.721 5.761 5.763 13.575 8.999 21.722 8.999s15.961-3.236 21.722-8.999c5.761-5.759 8.998-13.574 8.998-21.721 0-25.526 10.141-50.012 28.192-68.063s42.533-28.193 68.063-28.193c25.53 0 50.012 10.142 68.063 28.193s28.193 42.537 28.193 68.063c0 8.147 3.236 15.962 8.999 21.721 5.763 5.763 13.574 8.999 21.721 8.999s15.962-3.236 21.725-8.999c5.759-5.759 8.995-13.574 8.995-21.721-0.041-41.816-16.675-81.908-46.248-111.473s-69.669-46.191-111.489-46.223z" />
<glyph unicode="&#xe911;" glyph-name="Phone_Ringing" d="M696.795 48.722c-95.437 0-219.628 75.776-369.048 225.28-150.077 150.036-225.935 274.43-225.28 370.195-0.398 20.333 3.518 40.518 11.489 59.228s19.816 35.517 34.755 49.316c0.696 0.901 2.825 2.908 3.604 3.686 55.091 55.091 91.013 76.595 129.597 76.882 43.418-0.532 73.973-32.768 112.599-73.4 9.462-9.912 19.742-20.766 31.129-32.153 19.808-17.922 32.866-42.096 36.995-68.486s-0.918-53.397-14.303-76.512c-16.384-42.066-30.638-78.441 39.567-148.646s106.496-55.906 148.603-39.481c23.097 13.427 50.102 18.514 76.501 14.402 26.395-4.108 50.577-17.162 68.497-36.97 11.264-11.264 21.955-21.422 31.785-30.761 40.96-38.912 73.155-69.632 73.728-113.136 0.492-36.86-21.75-74.461-76.718-129.43l-3.973-3.891c-13.799-14.963-30.622-26.821-49.345-34.8-18.727-7.979-38.928-11.895-59.281-11.485l-0.901 0.164zM195.896 713.091c0 0-1.842-1.966-4.095-4.383-9.133-8.11-16.359-18.14-21.16-29.372s-7.059-23.385-6.611-35.591c-0.328-54.026 35.389-154.499 207.339-326.367 171.089-171.090 271.441-207.217 325.631-207.217h0.655c12.222-0.442 24.388 1.823 35.635 6.631 11.244 4.805 21.287 12.038 29.409 21.18 2.154 2.249 4.424 4.379 6.799 6.39 37.192 37.478 56.402 65.536 56.156 82.944s-23.020 39.322-54.6 69.386c-10.158 9.667-21.217 20.193-32.768 31.826-28.672 28.672-44.524 22.442-79.135 8.884-48.865-19.251-115.794-45.502-214.467 53.252-98.671 98.632-72.457 165.599-53.246 214.505 13.558 34.652 19.782 50.463-8.889 79.176-11.796 11.796-22.446 22.979-32.235 33.3-29.819 31.334-51.364 54.026-68.895 54.231h-0.86c-17.613 0-45.425-19.251-85.074-58.859l0.409 0.082zM870.384 493.629h-83.558c-8.147 0-15.962 3.236-21.721 8.995-5.763 5.763-8.999 13.574-8.999 21.725 0 8.145 3.236 15.959 8.999 21.72 5.759 5.761 13.574 8.998 21.721 8.998h83.558c8.147 0 15.962-3.237 21.725-8.998 5.759-5.761 8.995-13.575 8.995-21.72 0-8.151-3.236-15.962-8.995-21.725-5.763-5.759-13.578-8.995-21.725-8.995zM727.474 643.090c-6.074-0.002-12.014 1.796-17.068 5.169-5.050 3.373-8.991 8.169-11.321 13.78-2.327 5.612-2.937 11.787-1.757 17.747 1.184 5.96 4.104 11.435 8.397 15.733l59.105 59.064c5.825 5.426 13.525 8.38 21.484 8.24s15.557-3.364 21.185-8.993c5.628-5.629 8.851-13.222 8.991-21.18s-2.814-15.661-8.241-21.485l-59.064-59.105c-2.847-2.852-6.234-5.112-9.957-6.652-3.727-1.539-7.721-2.327-11.751-2.319zM578.011 702.441c-8.147 0-15.958 3.237-21.721 8.998s-8.999 13.575-8.999 21.722v83.558c0 8.148 3.236 15.961 8.999 21.722s13.574 8.998 21.721 8.998c8.147 0 15.962-3.237 21.725-8.998 5.759-5.761 8.995-13.575 8.995-21.722v-83.558c0-8.147-3.236-15.961-8.995-21.722-5.763-5.761-13.578-8.998-21.725-8.998z" />
<glyph unicode="&#xe912;" glyph-name="Pen" d="M554.336 510.792c-5.62-0.008-11.141 1.524-15.95 4.44-4.809 2.912-8.724 7.090-11.321 12.079s-3.772 10.594-3.396 16.205c0.373 5.611 2.281 11.011 5.517 15.61l63.119 90.112c4.788 6.377 11.866 10.645 19.739 11.9s15.925-0.6 22.458-5.174c6.529-4.574 11.026-11.508 12.538-19.336s-0.078-15.938-4.436-22.615l-63.119-90.113c-2.822-4.051-6.586-7.356-10.965-9.638s-9.245-3.473-14.184-3.469zM306.445 93.643c-18.508-1.073-36.925 3.314-52.961 12.616-39.199 26.665-47.186 115.261-48.456 165.642-1.103 42.533 11.175 84.341 35.103 119.521l240.191 344.064c13.128 18.851 29.839 34.93 49.185 47.318 19.35 12.388 40.944 20.841 63.558 24.877 22.618 4.036 45.806 3.575 68.239-1.356 22.438-4.931 43.684-14.236 62.521-27.382s34.902-29.877 47.268-49.235c12.37-19.358 20.804-40.963 24.814-63.582 4.014-22.619 3.531-45.806-1.421-68.238s-14.279-43.667-27.443-62.492l-237.814-340.664c-26.046-38.035-64.18-66.154-108.216-79.79-37.013-12.394-75.573-19.562-114.566-21.299zM623.886 748.921c-6.701 0.002-13.39-0.588-19.988-1.761-14.688-2.552-28.725-7.998-41.288-16.022-12.567-8.023-23.413-18.463-31.908-30.714l-239.944-344.064c-16.608-24.47-25.105-53.543-24.29-83.108-2.216-40.12 5.346-80.183 22.036-116.736 38.934-3.322 78.106 2.482 114.401 16.957 30.836 9.548 57.53 29.254 75.736 55.91l238.019 341.361c11.846 16.986 18.817 36.892 20.152 57.558 1.339 20.666-3.011 41.304-12.567 59.675-9.56 18.371-23.97 33.775-41.66 44.539s-37.99 16.48-58.7 16.527v-0.123z" />
<glyph unicode="&#xe913;" glyph-name="Calling1" d="M284.053 874.65c47.659-0.64 81.621-36.352 124.587-81.536 10.624-11.136 22.101-23.296 34.944-36.096 62.251-62.293 44.544-113.109 30.251-153.899-15.531-44.501-28.971-82.901 51.499-163.371s118.827-67.029 163.285-51.371c40.832 14.251 91.52 32.085 153.899-30.208 12.672-12.672 24.619-24.021 35.712-34.56 45.355-43.179 81.195-77.269 81.799-125.056 0.463-40.704-24.284-82.261-85.383-143.36l-27.051 18.347 22.912-22.315c-13.525-13.867-49.493-50.816-119.936-51.243h-1.28c-106.325 0-244.949 84.651-412.032 251.691-167.765 167.723-252.544 306.773-251.908 413.312 0.388 70.4 37.294 106.453 51.161 119.979l1.184 1.293 2.87 2.889c61.227 61.227 103.296 86.4 143.488 85.504zM283.243 810.65h-0.341c-19.16 0-48.258-19.2-88.839-58.62l-8.149-8.003 0.092 0.020c0.051 0-0.696-0.799-1.883-2.009l-2.853-2.855c-10.325-10.027-31.701-30.891-31.917-74.539-0.339-61.056 39.81-174.421 233.133-367.701 192.384-192.341 305.579-232.96 366.805-232.96h0.896c43.648 0.256 64.469 21.632 74.496 31.915 3.029 3.115 5.504 5.461 7.253 6.869 42.539 42.795 64.299 74.581 64.087 95.019-0.258 20.821-26.156 45.397-61.954 79.488-11.392 10.795-23.765 22.613-36.821 35.669-33.877 33.749-50.56 27.989-87.467 15.019-50.987-17.877-120.832-42.368-229.675 66.56-108.885 108.843-84.48 178.688-66.688 229.717 12.885 36.864 18.773 53.632-15.061 87.509-13.227 13.227-25.131 25.771-36.096 37.291-33.877 35.584-58.325 61.312-79.019 61.611zM650.522 722.863c88.789-17.237 157.355-85.76 174.635-174.592 3.371-17.408-7.936-34.176-25.259-37.547-2.091-0.384-4.139-0.597-6.187-0.597-15.019 0-28.373 10.581-31.36 25.856-12.288 63.147-60.971 111.829-124.032 124.075-17.365 3.371-28.672 20.139-25.301 37.504s20.437 28.715 37.504 25.301zM647.966 874.406c173.995-19.328 309.12-154.283 328.619-328.235 1.963-17.579-10.667-33.408-28.203-35.371-1.195-0.128-2.432-0.213-3.627-0.213-16.085 0-29.909 12.075-31.744 28.416-16.171 144.043-128.043 255.829-272.128 271.829-17.536 1.963-30.208 17.749-28.245 35.328 1.92 17.536 17.579 30.464 35.328 28.245z" />
<glyph unicode="&#xe914;" glyph-name="plane-landing" d="M870.908 351.973c-11.469 35.84-45.302 69.878-90.685 91.095-42.189 19.538-85.975 36.7-131.236 56.115-2.662 66.193-6.881 131.975-11.223 197.838-3.031 45.015-20.111 77.292-50.627 95.805-17.121 10.486-35.226 18.555-52.797 26.419-7.209 3.195-14.5 6.472-21.873 9.953-7.578 3.604-16.302 3.932-24.207 0.901-7.823-2.99-14.090-9.093-17.326-16.876l-85.524-205.701c-24.084 9.83-52.838 21.422-81.183 32.85-24.822 9.994-49.357 19.907-70.369 28.426l12.78 30.925c6.39 15.729-1.147 33.669-16.835 40.059-15.647 6.431-33.669-1.106-40.059-16.835l-22.2-53.821c-46.735-116.49-6.881-215.083 106.742-263.743 121.119-51.855 254.935-107.397 421.232-174.694 20.316-8.274 43.131-13.107 65.7-13.107 39.895 0 78.807 15.196 100.516 53.944 14.582 25.846 17.777 53.699 9.175 80.445zM813.466 94.876h-578.601c-16.957 0-30.72-13.763-30.72-30.72s13.763-30.72 30.72-30.72h578.601c16.957 0 30.72 13.763 30.72 30.72s-13.763 30.72-30.72 30.72z" />
<glyph unicode="&#xe915;" glyph-name="Arrow-B" d="M190.706 619.961c11.361 11.361 29.138 12.393 41.666 3.098l3.589-3.098 276.039-276.025 276.039 276.025c11.361 11.361 29.138 12.393 41.666 3.098l3.589-3.098c11.361-11.361 12.393-29.138 3.098-41.666l-3.098-3.589-298.667-298.667c-11.361-11.361-29.138-12.393-41.666-3.098l-3.589 3.098-298.667 298.667c-12.497 12.497-12.497 32.758 0 45.255z" />
<glyph unicode="&#xe916;" glyph-name="Receipt-bill-check" d="M240.47 56.58c-0.328-0.013-0.657-0.017-0.987-0.017-38.187 0-74.112 14.635-101.077 41.173-27.435 27.648-42.411 63.659-42.411 101.76v309.333c0 28.929 14.208 54.785 38.059 69.206 22.101 13.44 49.067 14.208 72.107 2.261l27.819-14.507c7.808-4.011 17.067-4.224 25.856-0.555l52.437 23.595c2.128 0.866 4.25 1.524 6.365 1.996v143.726c0 28.757 14.123 54.613 37.76 69.12 22.059 13.525 48.939 14.635 72.023 2.944l28.16-14.677c8.064-4.352 16.896-4.565 25.301-0.811l78.763 34.944c40.448 17.835 84.907 17.792 125.269 0.043l78.848-34.987c8.405-3.755 17.28-3.541 24.832 0.555l28.373 14.763c23.381 11.861 50.219 10.795 72.32-2.773 23.637-14.507 37.717-40.363 37.717-69.12l-0.341-489.428c0-116.309-65.237-188.544-170.283-188.544h-516.91zM318.638 521.506v-321.993c0-43.52-35.499-78.933-79.147-78.933l-0.841-0.013c-20.978 0.209-40.618 8.29-55.104 22.566-15.189 15.275-23.552 35.285-23.552 56.363v309.333c0 9.429 5.504 13.44 7.168 14.464 4.392 2.761 7.965 0.969 9.309 0.294l0.078-0.038 28.032-14.592c24.747-12.8 54.016-13.739 80.811-2.432l33.245 14.98zM732.267 310.874h-208c-17.664 0-32 14.336-32 32s14.336 32 32 32h208c17.664 0 32-14.336 32-32s-14.336-32-32-32zM581.047 445.218c6.272-6.229 14.421-9.344 22.613-9.344s16.384 3.115 22.613 9.387l128.512 128.427c12.501 12.501 12.501 32.768 0 45.269-12.459 12.501-32.725 12.501-45.227 0l-105.899-105.814-40.192 40.107c-12.501 12.416-32.768 12.459-45.269-0.043-12.459-12.544-12.459-32.811 0.043-45.312l62.805-62.677z" />
<glyph unicode="&#xe917;" glyph-name="Arrow-L" d="M683.961 769.294c11.361-11.361 12.393-29.138 3.098-41.666l-3.098-3.589-276.025-276.039 276.025-276.039c11.361-11.361 12.393-29.138 3.098-41.666l-3.098-3.589c-11.361-11.361-29.138-12.393-41.666-3.098l-3.589 3.098-298.667 298.667c-11.361 11.361-12.393 29.138-3.098 41.666l3.098 3.589 298.667 298.667c12.497 12.497 32.758 12.497 45.255 0z" />
<glyph unicode="&#xe918;" glyph-name="Receipt-bill-close" d="M240.47 56.58c-0.328-0.013-0.657-0.017-0.987-0.017-38.187 0-74.112 14.635-101.077 41.173-27.435 27.648-42.411 63.659-42.411 101.76v309.333c0 28.929 14.208 54.785 38.059 69.206 22.101 13.44 49.067 14.208 72.107 2.261l27.819-14.507c7.765-4.011 17.067-4.224 25.856-0.555l52.437 23.595c2.128 0.866 4.25 1.524 6.365 1.996v143.726c0 28.757 14.123 54.613 37.76 69.12 22.059 13.525 48.981 14.635 72.023 2.944l28.16-14.677c8.021-4.352 16.896-4.565 25.301-0.811l78.763 34.944c40.448 17.835 84.907 17.792 125.269 0.043l78.848-34.987c8.448-3.755 17.28-3.541 24.832 0.555l28.373 14.763c23.381 11.861 50.219 10.795 72.32-2.773 23.637-14.507 37.717-40.363 37.717-69.12l-0.341-489.428c0-116.309-65.237-188.544-170.283-188.544h-516.91zM318.638 521.506v-321.993c0-43.52-35.499-78.933-79.147-78.933l-0.841-0.013c-20.978 0.209-40.618 8.29-55.104 22.566-15.189 15.275-23.552 35.285-23.552 56.363v309.333c0 9.429 5.504 13.44 7.168 14.464 4.392 2.761 7.965 0.969 9.309 0.294l0.078-0.038 28.032-14.592c24.789-12.8 54.016-13.739 80.811-2.432l33.245 14.98zM722.953 293.376h-190.848c-17.664 0-32 14.336-32 32s14.336 32 32 32h190.848c17.664 0 32-14.336 32-32s-14.336-32-32-32zM666.944 425.634c6.229-6.272 14.421-9.387 22.613-9.387s16.384 3.115 22.656 9.387c12.459 12.501 12.459 32.768-0.043 45.227l-38.443 38.4 38.443 38.401c12.501 12.459 12.501 32.768 0.043 45.269-12.501 12.501-32.811 12.501-45.269 0l-38.485-38.443-38.485 38.443c-12.459 12.501-32.768 12.501-45.269 0s-12.501-32.811 0.043-45.269l38.4-38.401-38.4-38.4c-12.544-12.459-12.544-32.725-0.043-45.227s32.811-12.501 45.269 0l38.485 38.4 38.485-38.4z" />
<glyph unicode="&#xe919;" glyph-name="Arrow-R" d="M340.039 126.706c-11.361 11.361-12.393 29.138-3.098 41.666l3.098 3.589 276.025 276.039-276.025 276.039c-11.361 11.361-12.393 29.138-3.098 41.666l3.098 3.589c11.361 11.361 29.138 12.393 41.666 3.098l3.589-3.098 298.667-298.667c11.361-11.361 12.393-29.138 3.098-41.666l-3.098-3.589-298.667-298.667c-12.497-12.497-32.758-12.497-45.255 0z" />
<glyph unicode="&#xe91a;" glyph-name="Receipt-bill-time" d="M393.572 70.362c21.163-8.619 43.433-12.928 65.662-12.928 4.416 0 8.832 0.171 13.239 0.512 12.224 0.943 17.562 14.985 11.302 25.527-23.488 39.59-36.988 85.781-36.988 135.070 0 146.091 118.997 264.96 265.216 264.96 21.235 0 41.899-2.505 61.7-7.236 11.362-2.714 22.844 5.547 22.827 17.229l-0.273 185.892c0 118.187-67.669 188.8-180.992 188.8h-311.465c-112.256 0-181.973-72.363-181.973-188.8l-0.427-522.839c-0.043-25.173 12.629-48.213 33.877-61.611 21.291-13.483 47.488-14.891 70.144-4.053l32.341 15.531c13.952 6.699 30.123 7.125 44.373 1.28l91.435-37.333zM494.212 600.583h-207.188c-17.707 0-32 14.336-32 32s14.293 32 32 32h207.188c17.664 0 32-14.336 32-32s-14.336-32-32-32zM425.137 439.646h-138.112c-17.707 0-32 14.293-32 32 0 17.664 14.293 32 32 32h138.112c17.662 0 31.998-14.336 31.998-32 0-17.707-14.336-32-31.998-32zM761.169 145.169c-5.589 0-11.221 1.451-16.341 4.48l-50.176 29.909c-9.685 5.76-15.616 16.213-15.616 27.477v64.427c0 17.664 14.336 32 32 32s32-14.336 32-32v-46.251l34.517-20.523c15.189-9.045 20.181-28.715 11.136-43.904-6.016-10.027-16.64-15.616-27.52-15.616zM712.004 27.823c-105.045 0-190.549 85.547-190.549 190.72 0 104.917 85.504 190.293 190.549 190.293 105.088 0 190.592-85.376 190.592-190.293 0-105.173-85.504-190.72-190.592-190.72zM712.004 344.836c-69.76 0-126.549-56.661-126.549-126.293 0-69.888 56.789-126.72 126.549-126.72 69.803 0 126.592 56.832 126.592 126.72 0 69.632-56.789 126.293-126.592 126.293z" />
<glyph unicode="&#xe91b;" glyph-name="Arrow-T" d="M833.294 276.039c-11.361-11.361-29.138-12.393-41.666-3.098l-3.589 3.098-276.039 276.025-276.039-276.025c-11.361-11.361-29.138-12.393-41.666-3.098l-3.589 3.098c-11.361 11.361-12.393 29.138-3.098 41.666l3.098 3.589 298.667 298.667c11.361 11.361 29.138 12.393 41.666 3.098l3.589-3.098 298.667-298.667c12.497-12.497 12.497-32.758 0-45.255z" />
<glyph unicode="&#xe91c;" glyph-name="Receipt-bill" d="M239.493 56.563c-38.187 0-74.112 14.635-101.12 41.173-27.435 27.691-42.368 63.659-42.368 101.76v309.333c0 28.927 14.208 54.783 38.016 69.204 22.144 13.44 49.067 14.208 72.149 2.261l27.776-14.507c7.893-4.053 17.152-4.224 25.856-0.555l52.48 23.595c2.124 0.875 4.239 1.542 6.345 2.023v143.7c0 28.757 14.123 54.613 37.76 69.12 22.016 13.525 48.939 14.635 71.977 2.944l28.16-14.677c8.021-4.352 16.896-4.523 25.301-0.811l78.805 34.944c40.448 17.835 84.907 17.792 125.269 0.043l78.805-34.987c8.448-3.755 17.323-3.541 24.917 0.555l28.331 14.763c23.381 11.861 50.261 10.795 72.32-2.773 23.637-14.507 37.717-40.363 37.717-69.12l-0.341-489.428c0-116.309-65.237-188.544-170.283-188.544h-516.842c-0.343-0.013-0.687-0.017-1.032-0.017zM318.627 199.514v322.001l-33.268-14.989c-26.752-11.221-56.021-10.325-80.811 2.432l-28.067 14.63c-1.344 0.674-4.916 2.466-9.309-0.294-1.707-1.024-7.168-5.035-7.168-14.464v-309.333c0-21.077 8.363-41.088 23.509-56.363 14.481-14.229 34.154-22.353 55.125-22.566l0.884 0.013c43.605 0 79.104 35.413 79.104 78.933zM505.502 506.709h230.357c17.664 0 32 14.336 32 31.999s-14.336 32-32 32h-230.357c-17.664 0-32-14.336-32-32s14.336-31.999 32-31.999zM505.502 327.936h230.357c17.664 0 32 14.336 32 32s-14.336 32-32 32h-230.357c-17.664 0-32-14.336-32-32s14.336-32 32-32z" />
<glyph unicode="&#xe91d;" glyph-name="Search" d="M500.855 874.667c229.12 0 415.488-186.368 415.488-415.488 0-108.098-41.484-206.689-109.37-280.682l133.579-133.299c12.501-12.501 12.544-32.725 0.043-45.227-6.229-6.315-14.464-9.429-22.656-9.429-8.149 0-16.341 3.115-22.613 9.344l-135.191 134.814c-71.116-56.953-161.288-91.050-259.279-91.050-229.12 0-415.531 186.411-415.531 415.531s186.411 415.488 415.531 415.488zM500.855 810.667c-193.835 0-351.531-157.653-351.531-351.488s157.696-351.531 351.531-351.531c193.792 0 351.488 157.696 351.488 351.531s-157.696 351.488-351.488 351.488z" />
<glyph unicode="&#xe91e;" glyph-name="Calling11" d="M284.053 874.65c47.659-0.64 81.621-36.352 124.587-81.536 10.624-11.136 22.101-23.296 34.944-36.096 62.251-62.293 44.544-113.109 30.251-153.899-15.531-44.501-28.971-82.901 51.499-163.371s118.827-67.029 163.285-51.371c40.832 14.251 91.52 32.085 153.899-30.208 12.672-12.672 24.619-24.021 35.712-34.56 45.355-43.179 81.195-77.269 81.799-125.056 0.463-40.704-24.284-82.261-85.383-143.36l-27.051 18.347 22.912-22.315c-13.525-13.867-49.493-50.816-119.936-51.243h-1.28c-106.325 0-244.949 84.651-412.032 251.691-167.765 167.723-252.544 306.773-251.908 413.312 0.388 70.4 37.294 106.453 51.161 119.979l1.184 1.293 2.87 2.889c61.227 61.227 103.296 86.4 143.488 85.504zM283.243 810.65h-0.341c-19.16 0-48.258-19.2-88.839-58.62l-8.149-8.003 0.092 0.020c0.051 0-0.696-0.799-1.883-2.009l-2.853-2.855c-10.325-10.027-31.701-30.891-31.917-74.539-0.339-61.056 39.81-174.421 233.133-367.701 192.384-192.341 305.579-232.96 366.805-232.96h0.896c43.648 0.256 64.469 21.632 74.496 31.915 3.029 3.115 5.504 5.461 7.253 6.869 42.539 42.795 64.299 74.581 64.087 95.019-0.258 20.821-26.156 45.397-61.954 79.488-11.392 10.795-23.765 22.613-36.821 35.669-33.877 33.749-50.56 27.989-87.467 15.019-50.987-17.877-120.832-42.368-229.675 66.56-108.885 108.843-84.48 178.688-66.688 229.717 12.885 36.864 18.773 53.632-15.061 87.509-13.227 13.227-25.131 25.771-36.096 37.291-33.877 35.584-58.325 61.312-79.019 61.611zM650.522 722.863c88.789-17.237 157.355-85.76 174.635-174.592 3.371-17.408-7.936-34.176-25.259-37.547-2.091-0.384-4.139-0.597-6.187-0.597-15.019 0-28.373 10.581-31.36 25.856-12.288 63.147-60.971 111.829-124.032 124.075-17.365 3.371-28.672 20.139-25.301 37.504s20.437 28.715 37.504 25.301zM647.966 874.406c173.995-19.328 309.12-154.283 328.619-328.235 1.963-17.579-10.667-33.408-28.203-35.371-1.195-0.128-2.432-0.213-3.627-0.213-16.085 0-29.909 12.075-31.744 28.416-16.171 144.043-128.043 255.829-272.128 271.829-17.536 1.963-30.208 17.749-28.245 35.328 1.92 17.536 17.579 30.464 35.328 28.245z" />
<glyph unicode="&#xe91f;" glyph-name="Store" d="M608.297 362.721h-417.671c-11.346 0-20.48-9.175-20.48-20.48v-170.148c0-37.274 30.31-67.625 67.625-67.625h323.422c37.274 0 67.584 30.351 67.584 67.625v170.148c0 11.305-9.175 20.48-20.48 20.48zM859.615 761.884c0.328 14.909-5.243 28.959-15.688 39.649-10.404 10.65-24.33 16.507-39.199 16.507h-583.719c-30.31 0-54.968-24.617-54.968-54.886v-40.96c0-6.787 5.502-12.288 12.288-12.288h667.712c6.631 0 12.067 5.263 12.28 11.891l1.294 40.087zM899.994 474.808l-33.542 163.848c-1.171 5.718-6.201 9.823-12.038 9.823h-684.981c-5.841 0-10.874-4.111-12.041-9.834l-33.386-163.837c-3.318-16.22 0.819-32.932 11.305-45.752 10.486-12.861 25.969-20.193 42.516-20.193h613.417c6.787 0 12.288-5.501 12.288-12.288v-271.606c0-16.957 13.722-30.72 30.72-30.72 16.957 0 30.72 13.763 30.72 30.72v278.942c0 5.165 3.293 9.662 7.836 12.112 5.992 3.236 11.411 7.545 15.88 12.993 10.486 12.861 14.623 29.532 11.305 45.793z" />
<glyph unicode="&#xe920;" glyph-name="user---1" d="M507.941 744.96c-73.392 0-132.901-59.529-132.901-132.937s59.509-132.939 132.901-132.939c73.429 0 132.936 59.535 132.936 132.939s-59.507 132.937-132.936 132.937zM313.6 612.023c0 107.323 87.001 194.377 194.341 194.377 107.373 0 194.376-87.049 194.376-194.377 0-107.326-87.003-194.379-194.376-194.379-107.34 0-194.341 87.056-194.341 194.379zM318.156 338.457c51.713 17.342 119.927 22.503 189.707 22.503 70.185 0 138.433-5.349 190.091-22.917 25.993-8.835 50.029-21.496 67.834-40.157 18.51-19.407 28.979-44.003 28.979-72.958 0-29.020-10.576-53.6-29.196-72.925-17.891-18.567-42.009-31.109-68.026-39.838-51.716-17.351-119.931-22.528-189.682-22.528-70.169 0-138.414 5.349-190.079 22.913-25.994 8.839-50.032 21.496-67.838 40.157-18.514 19.407-28.986 44.003-28.986 72.962 0 29.020 10.559 53.608 29.177 72.946 17.889 18.579 42.007 31.117 68.020 39.842zM294.395 256c-7.814-8.114-11.996-17.514-11.996-30.331 0-12.874 4.185-22.36 11.997-30.548 8.52-8.929 22.478-17.367 43.163-24.4 41.694-14.176 101.539-19.644 170.303-19.644 68.436 0 128.315 5.304 170.14 19.337 20.759 6.967 34.775 15.344 43.323 24.22 7.823 8.118 12.001 17.51 12.001 30.294 0 12.874-4.186 22.36-11.997 30.548-8.516 8.925-22.471 17.367-43.151 24.4-41.689 14.172-101.532 19.644-170.316 19.644-68.481 0-128.356-5.292-170.17-19.313-20.751-6.959-34.755-15.335-43.298-24.207z" />
<glyph unicode="&#xe921;" glyph-name="Charge-battery" d="M182.637 662.761c36.394 34.897 87.081 51.159 144.821 51.159h299.455c57.741 0 108.47-16.604 144.867-52.032 36.532-35.559 54.751-86.314 54.751-146.787v-137.216c0-59.781-18.313-109.859-54.964-144.851-36.434-34.783-87.101-50.938-144.654-50.938h-299.774c-57.686 0-108.384 16.142-144.762 50.967-36.59 35.025-54.704 85.131-54.536 144.867v139.878c0 59.72 18.205 109.866 54.796 144.953zM225.16 618.414c-21.783-20.887-35.879-53.436-35.879-100.606v-140.014c-0.14-47.17 13.887-79.581 35.582-100.348 21.916-20.984 55.667-33.911 102.276-33.911h299.774c46.424 0 80.208 12.915 102.228 33.939 21.799 20.812 35.951 53.264 35.951 100.409v137.216c0 48.125-14.242 81.421-36.168 102.761-22.057 21.472-55.775 34.618-102.011 34.618h-299.455c-46.555 0-80.317-12.99-102.298-34.066zM758.878 568.24c0 16.966 13.754 30.72 30.72 30.72h32.76c32.584 0 61.305-9.539 80.675-33.608 18.207-22.625 23.536-52.627 23.536-83.077v-69.98c0-30.056-5.358-59.765-23.72-82.145-19.444-23.695-48.116-32.944-80.49-32.944h-32.44c-16.966 0-30.72 13.754-30.72 30.72s13.754 30.72 30.72 30.72h32.44c20.951 0 29.024 5.636 32.993 10.478 5.050 6.156 9.777 18.629 9.777 43.172v69.98c0 25.108-4.755 38.089-9.961 44.556-4.043 5.023-12.067 10.689-32.809 10.689h-32.76c-16.966 0-30.72 13.754-30.72 30.72zM487.109 606.544c14.905-8.103 20.419-26.755 12.317-41.661l-41.443-76.238h79.933c10.838 0 20.873-5.714 26.411-15.032 5.534-9.318 5.751-20.865 0.565-30.38l-66.195-121.553c-8.114-14.901-26.771-20.402-41.669-12.288-14.901 8.114-20.402 26.771-12.288 41.673l41.464 76.141h-79.883c-10.834 0-20.867 5.706-26.404 15.016-5.537 9.314-5.76 20.853-0.586 30.372l66.114 121.633c8.106 14.906 26.755 20.421 41.665 12.319z" />
<glyph unicode="&#xe922;" glyph-name="Close-remove" d="M267.482 715.482c-11.997 11.997-31.448 11.997-43.445 0s-11.997-31.448 0-43.445l224.036-224.038-224.036-224.039c-11.997-11.997-11.997-31.445 0-43.442s31.448-11.997 43.445 0l224.038 224.035 224.039-224.035c11.997-11.997 31.445-11.997 43.442 0s11.997 31.445 0 43.442l-224.035 224.039 224.035 224.038c11.997 11.997 11.997 31.448 0 43.445s-31.445 11.997-43.442 0l-224.039-224.036-224.038 224.036z" />
<glyph unicode="&#xe923;" glyph-name="Inbox-down" d="M683.139 51.708h-338.165c-133.079 0-222.495 93.635-222.495 232.94v319.773c0 139.264 89.416 232.94 222.495 232.94 8.148 0 15.962-3.236 21.723-8.998s8.997-13.575 8.997-21.722c0-8.147-3.236-15.961-8.997-21.722s-13.575-8.998-21.723-8.998c-97.812 0-161.055-67.338-161.055-171.5v-319.773c0-104.161 63.242-171.5 161.055-171.5h338.165c97.853 0 161.096 67.338 161.096 171.5v319.773c0 104.161-63.201 171.5-161.055 171.5-8.147 0-15.958 3.237-21.721 8.998-5.759 5.761-8.999 13.575-8.999 21.722s3.24 15.961 8.999 21.722c5.763 5.761 13.574 8.998 21.721 8.998 133.079 0 222.495-93.635 222.495-232.94v-319.773c0-139.305-89.416-232.94-222.536-232.94zM514.048 250.204c-27.611-0.090-54.69 7.602-78.131 22.192-23.446 14.59-42.302 35.488-54.415 60.301-5.151 10.539-13.165 19.419-23.124 25.62-9.96 6.197-21.463 9.47-33.196 9.441h-171.581c-8.147 0-15.961 3.236-21.722 8.999-5.761 5.759-8.998 13.574-8.998 21.721s3.237 15.962 8.998 21.721c5.761 5.763 13.575 8.999 21.722 8.999h171.622c23.2 0.082 45.953-6.377 65.652-18.637 19.697-12.259 35.544-29.819 45.719-50.668 7.115-14.483 18.149-26.685 31.846-35.217s29.512-13.054 45.65-13.054c16.138 0 31.953 4.522 45.65 13.054s24.732 20.734 31.846 35.217c10.195 20.832 26.042 38.375 45.74 50.627 19.694 12.247 42.439 18.706 65.63 18.637h171.54c8.147 0 15.962-3.236 21.721-8.999 5.763-5.759 8.999-13.574 8.999-21.721s-3.236-15.962-8.999-21.721c-5.759-5.763-13.574-8.999-21.721-8.999h-171.622c-11.727 0.037-23.228-3.232-33.182-9.433-9.957-6.201-17.961-15.086-23.097-25.629-12.128-24.797-30.994-45.679-54.432-60.26-23.441-14.582-50.512-22.27-78.115-22.192zM521.826 494.883c-7.979-0.008-15.651 3.092-21.381 8.643l-112.477 108.954c-5.777 5.687-9.071 13.427-9.166 21.533s3.018 15.92 8.66 21.741c5.642 5.82 13.356 9.175 21.461 9.332 8.103 0.158 15.943-2.895 21.808-8.492l91.095-88.227 91.177 88.227c5.865 5.613 13.713 8.677 21.832 8.52 8.114-0.156 15.839-3.518 21.484-9.353 5.648-5.834 8.753-13.667 8.643-21.784-0.115-8.117-3.432-15.861-9.236-21.538l-112.517-108.914c-5.726-5.558-13.402-8.659-21.381-8.643zM521.839 495.051c-8.147 0-15.958 3.236-21.721 8.999-5.759 5.759-8.999 13.574-8.999 21.721v296.469c0 8.147 3.24 15.961 8.999 21.722 5.763 5.761 13.574 8.998 21.721 8.998s15.962-3.236 21.725-8.998c5.759-5.761 8.995-13.575 8.995-21.722v-296.428c0.008-4.039-0.782-8.036-2.327-11.768-1.54-3.731-3.801-7.123-6.656-9.982-2.851-2.855-6.242-5.12-9.97-6.668-3.731-1.544-7.729-2.343-11.768-2.343z" />
<glyph unicode="&#xe924;" glyph-name="Delete-trash" d="M180.12 568.64c0 16.966 13.754 30.72 30.72 30.72h602.355c16.966 0 30.72-13.754 30.72-30.72s-13.754-30.72-30.72-30.72h-602.355c-16.966 0-30.72 13.754-30.72 30.72zM240.374 599.256c16.91 1.385 31.74-11.201 33.125-28.11l32.642-398.573c3.394-41.447 38.022-73.355 79.606-73.355h252.459c41.583 0 76.21 31.908 79.606 73.355l32.641 398.573c1.384 16.91 16.216 29.495 33.124 28.11 16.912-1.385 29.495-16.215 28.111-33.125l-32.641-398.576c-6.005-73.327-67.269-129.778-140.841-129.778h-252.459c-73.572 0-134.835 56.451-140.841 129.778l-32.642 398.576c-1.385 16.91 11.201 31.74 28.11 33.125zM683.34 649.377c-13.816 15.188-33.874 24.68-61.252 22.017-20.828-2.025-41.587-18.276-60.146-42.591-10.297-13.486-29.573-16.074-43.061-5.781-13.484 10.294-16.073 29.572-5.779 43.058 21.418 28.063 55.935 61.884 103.039 66.465 46.846 4.556 85.905-12.421 112.652-41.83 26.112-28.711 39.277-67.776 39.277-106.981 0-16.966-13.754-30.72-30.72-30.72s-30.72 13.754-30.72 30.72c0 26.094-8.843 49.756-23.29 65.642zM529.441 719.88c-19.354 17.91-47.342 34.686-85.111 34.68-70.15-0.011-127.010-56.868-127.010-127.008 0-16.828 3.257-32.821 9.146-47.436 6.341-15.737-1.275-33.632-17.012-39.977-15.737-6.341-33.634 1.278-39.975 17.014-8.78 21.791-13.598 45.57-13.598 70.399 0 104.081 84.374 188.432 188.442 188.447 57.688 0.009 99.885-26.073 126.849-51.025 13.468-12.461 23.429-24.88 30.069-34.241 3.338-4.701 5.878-8.692 7.639-11.616 0.885-1.464 1.577-2.666 2.081-3.562l0.614-1.112 0.201-0.376 0.074-0.14 0.033-0.059 0.012-0.026c0.008-0.012 0.012-0.024-27.197-14.279l27.21 14.255c7.873-15.029 2.073-33.595-12.956-41.467-14.987-7.85-33.489-2.106-41.398 12.826zM557.548 685.183l-0.172 0.314c-0.205 0.359-0.569 0.999-1.102 1.88-1.065 1.765-2.777 4.471-5.145 7.807-4.764 6.714-11.993 15.726-21.688 24.696zM523.801 45.617c12.272 11.715 12.722 31.162 1.008 43.434l-238.706 250.085c-11.715 12.272-31.16 12.722-43.433 1.008s-12.725-31.158-1.011-43.43l238.708-250.085c11.715-12.272 31.158-12.726 43.434-1.012zM733.864 75.162c12.39 11.592 13.042 31.031 1.454 43.422l-439.921 470.378c-11.589 12.392-31.029 13.042-43.42 1.453s-13.042-31.029-1.453-43.422l439.919-470.376c11.592-12.39 31.031-13.042 43.422-1.454zM284.323 80.765c-12.391 11.588-13.042 31.027-1.453 43.418l434.655 464.748c11.588 12.392 31.027 13.042 43.418 1.453 12.394-11.589 13.042-31.029 1.454-43.42l-434.654-464.749c-11.589-12.39-31.029-13.042-43.42-1.45zM242.237 295.805c-12.038 11.956-12.104 31.404-0.148 43.442l249.275 250.975c11.956 12.037 31.408 12.104 43.442 0.147 12.038-11.956 12.104-31.407 0.147-43.443l-249.273-250.974c-11.956-12.038-31.407-12.104-43.444-0.147zM502.538 45.539c-12.317 11.665-12.841 31.109-1.176 43.426l236.896 250.085c11.665 12.317 31.109 12.845 43.426 1.176 12.321-11.665 12.845-31.109 1.18-43.43l-236.896-250.081c-11.665-12.317-31.109-12.845-43.43-1.176zM782.107 295.723c12.083 11.907 12.222 31.359 0.311 43.442l-247.378 250.974c-11.911 12.083-31.363 12.223-43.446 0.313s-12.222-31.36-0.311-43.444l247.378-250.974c11.911-12.083 31.363-12.222 43.446-0.311z" />
<glyph unicode="&#xe925;" glyph-name="Delete" d="M827.076 587.947c17.621-1.451 30.763-16.853 29.355-34.475-0.256-2.901-23.381-289.237-36.693-409.344-8.277-74.539-57.515-119.893-131.84-121.259-56.875-0.981-111.744-1.536-165.376-1.536-57.813 0-114.176 0.64-169.941 1.792-71.339 1.408-120.704 47.659-128.768 120.704-13.44 121.173-36.437 406.784-36.651 409.643-1.451 17.621 11.691 33.067 29.312 34.475 17.365 0.469 33.067-11.733 34.475-29.312 0.136-1.852 9.538-118.487 19.783-233.886l2.058-23.029c5.16-57.36 10.391-112.477 14.639-150.85 4.565-41.515 26.965-62.933 66.475-63.744 106.667-2.261 215.509-2.389 332.843-0.256 41.984 0.811 64.683 21.803 69.376 64.299 13.227 119.211 36.267 404.565 36.523 407.467 1.408 17.579 16.981 29.867 34.432 29.312zM612.070 874.654c39.168 0 73.6-26.411 83.712-64.256l10.837-53.803c3.502-17.637 18.98-30.518 36.901-30.801l140.020-0.005c17.664 0 32-14.336 32-32s-14.336-32-32-32l-138.77 0.006c-0.215-0.004-0.431-0.006-0.648-0.006l-1.041 0.043-442.64-0.037c-0.344-0.003-0.689-0.005-1.033-0.005l-0.657 0.043-138.752-0.043c-17.664 0-32 14.336-32 32s14.336 32 32 32l139.989 0.043 4.31 0.273c16.055 2.083 29.398 14.277 32.656 30.49l10.368 51.883c10.539 39.765 44.971 66.176 84.139 66.176h180.608zM612.070 810.654h-180.608c-10.24 0-19.243-6.869-21.845-16.725l-9.941-49.92c-1.263-6.323-3.103-12.417-5.458-18.23h255.11c-2.357 5.814-4.201 11.907-5.471 18.23l-10.368 51.883c-2.176 7.893-11.179 14.763-21.419 14.763z" />
<glyph unicode="&#xe927;" glyph-name="Full-battery" d="M157.2 662.759c36.395 34.898 87.084 51.161 144.827 51.161h299.47c57.745 0 108.478-16.605 144.876-52.035 36.532-35.561 54.751-86.317 54.751-146.793v-137.224c0-59.781-18.313-109.867-54.968-144.859-36.434-34.783-87.101-50.938-144.658-50.938h-299.789c-57.688 0-108.389 16.142-144.769 50.967-36.592 35.029-54.707 85.135-54.538 144.876v139.887c0 59.722 18.205 109.87 54.799 144.959zM199.723 618.411c-21.785-20.888-35.882-53.439-35.882-100.611v-140.022c-0.141-47.17 13.888-79.585 35.584-100.356 21.918-20.98 55.67-33.911 102.283-33.911h299.789c46.428 0 80.212 12.915 102.236 33.939 21.803 20.816 35.951 53.273 35.951 100.418v137.224c0 48.127-14.242 81.425-36.168 102.767-22.061 21.473-55.779 34.621-102.019 34.621h-299.47c-46.558 0-80.322-12.99-102.304-34.069zM733.438 568.24c0 16.966 13.754 30.72 30.72 30.72h32.764c32.584 0 61.305-9.539 80.675-33.609 18.211-22.626 23.536-52.626 23.536-83.080v-69.984c0-30.056-5.358-59.769-23.72-82.149-19.444-23.695-48.116-32.944-80.49-32.944h-32.444c-16.966 0-30.72 13.754-30.72 30.72s13.754 30.72 30.72 30.72h32.444c20.951 0 29.024 5.636 32.993 10.478 5.054 6.156 9.777 18.633 9.777 43.176v69.984c0 25.108-4.755 38.089-9.961 44.56-4.043 5.023-12.067 10.689-32.809 10.689h-32.764c-16.966 0-30.72 13.754-30.72 30.72zM291.44 553.4c16.966 0 30.72-13.754 30.72-30.722v-149.377c0-16.966-13.754-30.72-30.72-30.72s-30.72 13.754-30.72 30.72v149.377c0 16.968 13.754 30.722 30.72 30.722zM449.499 553.4c16.966 0 30.72-13.754 30.72-30.722v-149.377c0-16.966-13.754-30.72-30.72-30.72s-30.72 13.754-30.72 30.72v149.377c0 16.968 13.754 30.722 30.72 30.722zM600.199 553.4c16.966 0 30.72-13.754 30.72-30.722v-149.377c0-16.966-13.754-30.72-30.72-30.72s-30.72 13.754-30.72 30.72v149.377c0 16.968 13.754 30.722 30.72 30.722z" />
<glyph unicode="&#xe929;" glyph-name="archive" d="M683.139 51.708h-338.165c-133.079 0-222.495 93.635-222.495 232.94v319.773c0 139.264 89.416 232.94 222.495 232.94 8.148 0 15.962-3.236 21.723-8.998s8.997-13.575 8.997-21.722c0-8.147-3.236-15.961-8.997-21.722s-13.575-8.998-21.723-8.998c-97.812 0-161.055-67.338-161.055-171.5v-319.773c0-104.161 63.242-171.5 161.055-171.5h338.165c97.853 0 161.096 67.338 161.096 171.5v319.773c0 104.161-63.201 171.5-161.055 171.5-8.147 0-15.958 3.237-21.721 8.998-5.759 5.761-8.999 13.575-8.999 21.722s3.24 15.961 8.999 21.722c5.763 5.761 13.574 8.998 21.721 8.998 133.079 0 222.495-93.635 222.495-232.94v-319.773c0-139.305-89.416-232.94-222.536-232.94zM514.048 250.204c-27.611-0.090-54.69 7.602-78.131 22.192-23.446 14.59-42.302 35.488-54.415 60.301-5.151 10.539-13.165 19.419-23.124 25.62-9.96 6.197-21.463 9.47-33.196 9.441h-171.581c-8.147 0-15.961 3.236-21.722 8.999-5.761 5.759-8.998 13.574-8.998 21.721s3.237 15.962 8.998 21.721c5.761 5.763 13.575 8.999 21.722 8.999h171.622c23.2 0.082 45.953-6.377 65.652-18.637 19.697-12.259 35.544-29.819 45.719-50.668 7.115-14.483 18.149-26.685 31.846-35.217s29.512-13.054 45.65-13.054c16.138 0 31.953 4.522 45.65 13.054s24.732 20.734 31.846 35.217c10.195 20.832 26.042 38.375 45.74 50.627 19.694 12.247 42.439 18.706 65.63 18.637h171.54c8.147 0 15.962-3.236 21.721-8.999 5.763-5.759 8.999-13.574 8.999-21.721s-3.236-15.962-8.999-21.721c-5.759-5.763-13.574-8.999-21.721-8.999h-171.622c-11.727 0.037-23.228-3.232-33.182-9.433-9.957-6.201-17.961-15.086-23.097-25.629-12.128-24.797-30.994-45.679-54.432-60.26-23.441-14.582-50.512-22.27-78.115-22.192zM521.826 494.883c-7.979-0.008-15.651 3.092-21.381 8.643l-112.477 108.954c-5.777 5.687-9.071 13.427-9.166 21.533s3.018 15.92 8.66 21.741c5.642 5.82 13.356 9.175 21.461 9.332 8.103 0.158 15.943-2.895 21.808-8.492l91.095-88.227 91.177 88.227c5.865 5.613 13.713 8.677 21.832 8.52 8.114-0.156 15.839-3.518 21.484-9.353 5.648-5.834 8.753-13.667 8.643-21.784-0.115-8.117-3.432-15.861-9.236-21.538l-112.517-108.914c-5.726-5.558-13.402-8.659-21.381-8.643zM521.839 495.051c-8.147 0-15.958 3.236-21.721 8.999-5.759 5.759-8.999 13.574-8.999 21.721v296.469c0 8.147 3.24 15.961 8.999 21.722 5.763 5.761 13.574 8.998 21.721 8.998s15.962-3.236 21.725-8.998c5.759-5.761 8.995-13.575 8.995-21.722v-296.428c0.008-4.039-0.782-8.036-2.327-11.768-1.54-3.731-3.801-7.123-6.656-9.982-2.851-2.855-6.242-5.12-9.97-6.668-3.731-1.544-7.729-2.343-11.768-2.343z" />
<glyph unicode="&#xe92b;" glyph-name="bar1" d="M512 234.667c-47.061 0-85.333-38.272-85.333-85.333s38.272-85.333 85.333-85.333c47.061 0 85.333 38.272 85.333 85.333s-38.272 85.333-85.333 85.333zM512 661.333c47.061 0 85.333 38.272 85.333 85.333s-38.272 85.333-85.333 85.333c-47.061 0-85.333-38.272-85.333-85.333s38.272-85.333 85.333-85.333zM512 533.333c-47.061 0-85.333-38.272-85.333-85.333s38.272-85.333 85.333-85.333c47.061 0 85.333 38.272 85.333 85.333s-38.272 85.333-85.333 85.333z" />
<glyph unicode="&#xe92d;" glyph-name="Key1" d="M282.203 677.307c42.745 42.745 114.997 59.638 159.912 14.724l0.004-0.006c12.251-12.258 15.057-27.794 14.021-40.606-0.987-12.213-5.46-23.926-10.564-33.921-10.318-20.204-27.23-41.115-45.145-58.778-17.941-17.687-39.023-34.218-59.111-44.368-9.917-5.009-21.44-9.417-33.337-10.535-12.269-1.155-28.099 1.085-40.548 13.533-44.922 44.924-28.009 117.18 14.769 159.957zM393.832 652.228c-13.997 8.046-42.013 7.806-68.185-18.366-25.845-25.845-26.439-53.441-18.747-67.625 1.767 0.64 4.001 1.582 6.715 2.953 12.606 6.368 28.58 18.394 43.68 33.281 15.125 14.911 27.24 30.591 33.559 42.966 1.426 2.793 2.366 5.050 2.978 6.79zM539.947 730.123c-86.049 86.049-225.562 86.049-311.611 0s-86.049-225.562 0-311.611c63.771-63.771 156.892-80.364 235.937-49.545 11.37 4.432 24.281 1.716 32.903-6.918l46.019-46.1 70.529-0.053c15.303-0.008 28.262-11.28 30.396-26.431l10.080-71.5 60.686-2.175c15.204-0.541 27.718-12.132 29.426-27.251l7.881-69.718h87.47v102.195l-242.467 242.598c-8.532 8.54-11.276 21.283-7.008 32.575 29.716 78.626 12.935 170.759-50.242 233.934zM184.892 773.568c110.042 110.042 288.458 110.042 398.497 0 75.817-75.816 99.287-184.085 70.722-279.984l238.002-238.133c5.759-5.759 8.991-13.57 8.991-21.717v-145.633c0-16.966-13.754-30.72-30.72-30.72h-145.637c-15.63 0-28.77 11.739-30.523 27.271l-7.987 70.685-59.961 2.15c-14.885 0.532-27.242 11.665-29.319 26.411l-9.949 70.578-56.586 0.045c-8.147 0.004-15.958 3.248-21.717 9.015l-41.394 41.468c-96.546-29.745-205.951-6.402-282.417 70.066-110.042 110.039-110.042 288.455 0 398.497z" />
<glyph unicode="&#xe92e;" glyph-name="contacts" d="M202.322 736.639c37.641 35.793 90.033 52.48 149.71 52.48h312.131c59.81 0 112.23-16.675 149.815-52.508 37.814-36.050 56.623-87.686 56.455-149.413v-336.368c0-61.747-18.895-113.443-56.713-149.557-37.605-35.91-90.018-52.691-149.877-52.691h-311.811c-59.861 0-112.319 17.146-149.925 53.604-37.757 36.606-56.667 88.928-56.667 151.433v333.611c0 61.774 19.005 113.391 56.882 149.408zM244.659 692.115c-22.988-21.86-37.779-55.827-37.779-104.884v-333.611c0-50.078 14.886-84.914 37.994-107.323 23.26-22.548 58.737-36.274 107.157-36.274h311.811c48.742 0 84.263 13.55 107.442 35.684 22.966 21.93 37.708 56.001 37.708 105.124v336.489c0.143 49.080-14.529 83.007-37.409 104.823-23.122 22.043-58.634 35.537-107.422 35.537h-312.131c-48.604 0-84.148-13.481-107.372-35.564zM421.88 275.788c-14.627-13.259-20.28-29.868-20.28-44.257 0-16.966-13.754-30.72-30.72-30.72s-30.72 13.754-30.72 30.72c0 30.364 12.002 63.988 40.458 89.78 28.534 25.862 70.827 41.411 127.278 41.411 56.406 0 98.697-15.417 127.25-41.157 28.504-25.694 40.522-59.249 40.522-89.637 0-16.966-13.754-30.72-30.72-30.72s-30.72 13.754-30.72 30.72c0 14.369-5.632 30.851-20.222 44.003-14.537 13.107-40.776 25.35-86.11 25.35-45.257 0-71.471-12.308-86.016-25.494zM507.875 568.16c-31.392 0-56.836-25.44-56.836-56.799 0-31.355 25.444-56.795 56.836-56.795 31.375 0 56.799 25.42 56.799 56.795 0 31.377-25.42 56.799-56.799 56.799zM389.6 511.361c0 65.328 52.989 118.239 118.275 118.239 65.311 0 118.239-52.929 118.239-118.239 0-65.307-52.929-118.235-118.239-118.235-65.286 0-118.275 52.912-118.275 118.235zM359.12 847.36c16.966 0 30.72-13.754 30.72-30.72v-121.313c0-16.966-13.754-30.72-30.72-30.72s-30.72 13.754-30.72 30.72v121.313c0 16.966 13.754 30.72 30.72 30.72zM656.966 847.36c16.966 0 30.72-13.754 30.72-30.72v-121.313c0-16.966-13.754-30.72-30.72-30.72s-30.72 13.754-30.72 30.72v121.313c0 16.966 13.754 30.72 30.72 30.72z" />
<glyph unicode="&#xe92f;" glyph-name="Low-battery" d="M182.637 662.761c36.394 34.897 87.081 51.159 144.821 51.159h299.455c57.741 0 108.47-16.604 144.867-52.032 36.532-35.559 54.751-86.314 54.751-146.787v-137.216c0-59.781-18.313-109.859-54.964-144.851-36.434-34.783-87.101-50.938-144.654-50.938h-299.774c-57.686 0-108.384 16.142-144.762 50.967-36.59 35.025-54.704 85.131-54.536 144.867v139.878c0 59.72 18.205 109.866 54.796 144.953zM225.16 618.414c-21.783-20.887-35.879-53.436-35.879-100.606v-140.014c-0.14-47.17 13.887-79.581 35.582-100.348 21.916-20.984 55.667-33.911 102.276-33.911h299.774c46.424 0 80.208 12.915 102.228 33.939 21.799 20.812 35.951 53.264 35.951 100.409v137.216c0 48.125-14.242 81.421-36.168 102.761-22.057 21.472-55.775 34.618-102.011 34.618h-299.455c-46.555 0-80.317-12.99-102.298-34.066zM316.88 553.4c16.966 0 30.72-13.754 30.72-30.722v-149.369c0-16.966-13.754-30.72-30.72-30.72s-30.72 13.754-30.72 30.72v149.369c0 16.968 13.754 30.722 30.72 30.722zM758.878 568.24c0 16.966 13.754 30.72 30.72 30.72h32.76c32.571 0 61.284-9.542 80.654-33.603 18.215-22.622 23.556-52.62 23.556-83.082v-69.98c0-30.069-5.37-59.777-23.74-82.149-19.444-23.687-48.108-32.94-80.47-32.94h-32.44c-16.966 0-30.72 13.754-30.72 30.72s13.754 30.72 30.72 30.72h32.44c20.926 0 29.004 5.632 32.981 10.482 5.059 6.16 9.789 18.637 9.789 43.168v69.98c0 25.096-4.764 38.081-9.97 44.552-4.055 5.031-12.087 10.693-32.801 10.693h-32.76c-16.966 0-30.72 13.754-30.72 30.72z" />
<glyph unicode="&#xe930;" glyph-name="Bank-Card-double" d="M265.652 606.762c31.671 33.981 76.603 52.758 129.046 52.758h370.742c52.576 0 97.534-18.762 129.196-52.77 31.429-33.76 47.464-80.049 47.464-131.331v-242.512c0-51.282-16.036-97.571-47.473-131.334-31.67-34.009-76.64-52.765-129.233-52.765h-370.697c-52.575 0-97.526 18.76-129.178 52.773-31.419 33.763-47.439 80.048-47.439 131.326v242.512c0 51.323 16.125 97.602 47.572 131.343zM310.598 564.872c-19.086-20.478-31.078-50.889-31.078-89.453v-242.512c0-38.609 11.941-69.014 30.977-89.469 18.804-20.206 46.801-33.19 84.2-33.19h370.697c37.429 0 65.45 12.988 84.271 33.198 19.046 20.455 30.994 50.856 30.994 89.461v242.512c0 38.605-11.948 69.007-30.994 89.465-18.813 20.21-46.825 33.196-84.226 33.196h-370.742c-37.221 0-65.238-12.97-84.1-33.208zM363.4 445.919c0 16.966 13.754 30.72 30.72 30.72h371.717c16.966 0 30.72-13.754 30.72-30.72s-13.754-30.72-30.72-30.72h-371.717c-16.966 0-30.72 13.754-30.72 30.72zM603.91 841.011c44.311-12.723 81.883-44.070 108.409-87.755l0.082-0.138 64.958-108.261c8.729-14.549 4.010-33.418-10.539-42.147s-33.419-4.012-42.148 10.537l-64.872 108.123c-0.012 0.020-0.025 0.041-0.037 0.062-20.009 32.924-45.937 52.809-72.81 60.526-26.534 7.62-57.213 4.333-89.334-15.030l-317.406-191.029c-31.959-19.198-49.338-44.772-55.1-71.865-5.827-27.402-0.466-59.687 19.36-92.852 0.011-0.020 0.023-0.041 0.034-0.057l125.594-207.819c4.909-8.442 10.115-15.655 15.836-21.922 5.165-5.661 8.028-13.046 8.028-20.709v-0.307c0-16.97-13.754-30.72-30.72-30.72-10.402 0-19.597 5.169-25.154 13.079-7.956 9.11-14.846 18.96-20.971 29.463l-125.338 207.393c-26.373 44.077-36.366 92.090-26.766 137.232 9.669 45.471 38.54 84.712 83.536 111.741l317.347 190.992c45.142 27.208 93.356 34.29 138.011 21.466z" />
<glyph unicode="&#xe931;" glyph-name="Medium-battery" d="M157.198 662.761c36.393 34.897 87.080 51.159 144.821 51.159h299.455c57.741 0 108.47-16.604 144.867-52.032 36.532-35.559 54.751-86.314 54.751-146.787v-137.216c0-59.781-18.313-109.859-54.964-144.851-36.434-34.783-87.101-50.938-144.654-50.938h-299.774c-57.686 0-108.384 16.142-144.762 50.967-36.59 35.025-54.705 85.131-54.536 144.867v139.878c0 59.72 18.204 109.866 54.796 144.953zM199.721 618.414c-21.783-20.887-35.879-53.436-35.879-100.606v-140.014c-0.141-47.17 13.887-79.581 35.582-100.348 21.916-20.984 55.666-33.911 102.276-33.911h299.774c46.424 0 80.208 12.915 102.228 33.939 21.803 20.812 35.951 53.264 35.951 100.409v137.216c0 48.125-14.242 81.421-36.168 102.761-22.057 21.472-55.775 34.618-102.011 34.618h-299.455c-46.555 0-80.316-12.99-102.298-34.066zM291.44 553.4c16.966 0 30.72-13.754 30.72-30.722v-149.369c0-16.966-13.754-30.72-30.72-30.72s-30.72 13.754-30.72 30.72v149.369c0 16.968 13.754 30.722 30.72 30.722zM449.52 553.4c16.966 0 30.72-13.754 30.72-30.722v-149.369c0-16.966-13.754-30.72-30.72-30.72s-30.72 13.754-30.72 30.72v149.369c0 16.968 13.754 30.722 30.72 30.722zM733.438 568.24c0 16.966 13.754 30.72 30.72 30.72h32.76c32.571 0 61.284-9.542 80.654-33.603 18.215-22.622 23.556-52.62 23.556-83.082v-69.98c0-30.069-5.37-59.777-23.74-82.149-19.444-23.687-48.108-32.94-80.47-32.94h-32.44c-16.966 0-30.72 13.754-30.72 30.72s13.754 30.72 30.72 30.72h32.44c20.926 0 29.004 5.632 32.981 10.482 5.059 6.16 9.789 18.637 9.789 43.168v69.98c0 25.096-4.76 38.081-9.97 44.552-4.055 5.031-12.083 10.693-32.801 10.693h-32.76c-16.966 0-30.72 13.754-30.72 30.72z" />
<glyph unicode="&#xe932;" glyph-name="Barcode-scan---2" d="M298.48 632.96c16.966 0 30.72-13.754 30.72-30.72v-308.442c0-16.966-13.754-30.72-30.72-30.72s-30.72 13.754-30.72 30.72v308.442c0 16.966 13.754 30.72 30.72 30.72zM568.959 632.96c16.966 0 30.72-13.754 30.72-30.72v-308.442c0-16.966-13.754-30.72-30.72-30.72s-30.72 13.754-30.72 30.72v308.442c0 16.966 13.754 30.72 30.72 30.72zM704.242 632.96c16.966 0 30.72-13.754 30.72-30.72v-147.207c0-16.966-13.754-30.72-30.72-30.72-16.97 0-30.72 13.754-30.72 30.72v147.207c0 16.966 13.75 30.72 30.72 30.72zM704.242 367.038c16.966 0 30.72-13.75 30.72-30.72v-38.814c0-16.966-13.754-30.72-30.72-30.72-16.97 0-30.72 13.754-30.72 30.72v38.814c0 16.97 13.75 30.72 30.72 30.72zM433.68 475.521c16.966 0 30.72-13.754 30.72-30.72v-147.21c0-16.966-13.754-30.72-30.72-30.72s-30.72 13.754-30.72 30.72v147.21c0 16.966 13.755 30.72 30.72 30.72zM433.68 632.96c16.966 0 30.72-13.754 30.72-30.72v-38.814c0-16.966-13.754-30.72-30.72-30.72s-30.72 13.754-30.72 30.72v38.814c0 16.966 13.755 30.72 30.72 30.72zM653.279 765.44c0 16.966 13.754 30.72 30.72 30.72h45.47c94.794 0 171.631-76.837 171.631-171.631v-57.065c0-16.966-13.754-30.72-30.72-30.72s-30.72 13.754-30.72 30.72v57.065c0 60.862-49.328 110.191-110.191 110.191h-45.47c-16.966 0-30.72 13.754-30.72 30.72zM870.375 359.199c16.966 0 30.72-13.754 30.72-30.72v-57.065c0-94.794-76.837-171.631-171.631-171.631h-46.666c-16.966 0-30.72 13.754-30.72 30.72s13.754 30.72 30.72 30.72h46.666c60.862 0 110.191 49.328 110.191 110.191v57.065c0 16.966 13.754 30.72 30.72 30.72zM274.031 734.72c-60.862 0-110.191-49.329-110.191-110.191v-57.065c0-16.966-13.754-30.72-30.72-30.72s-30.72 13.754-30.72 30.72v57.065c0 94.794 76.837 171.631 171.631 171.631h45.469c16.966 0 30.72-13.754 30.72-30.72s-13.754-30.72-30.72-30.72h-45.469zM133.12 359.199c16.966 0 30.72-13.754 30.72-30.72v-57.065c0-60.862 49.329-110.191 110.191-110.191h46.664c16.966 0 30.72-13.754 30.72-30.72s-13.754-30.72-30.72-30.72h-46.664c-94.794 0-171.631 76.837-171.631 171.631v57.065c0 16.966 13.754 30.72 30.72 30.72z" />
<glyph unicode="&#xe933;" glyph-name="Menu" d="M373.959 244.834c-29.653 0-53.803-24.107-53.803-53.803 0-29.653 24.149-53.76 53.803-53.76s53.804 24.107 53.804 53.76c0 29.696-24.151 53.803-53.804 53.803zM373.959 501.751c-29.653 0-53.803-24.107-53.803-53.803 0-29.653 24.149-53.76 53.803-53.76s53.804 24.107 53.804 53.76c0 29.696-24.151 53.803-53.804 53.803zM373.959 758.667c-29.653 0-53.803-24.107-53.803-53.803 0-29.653 24.149-53.76 53.803-53.76s53.804 24.107 53.804 53.76c0 29.696-24.151 53.803-53.804 53.803zM650.044 244.834c-29.653 0-53.803-24.107-53.803-53.803 0-29.653 24.149-53.76 53.803-53.76s53.803 24.107 53.803 53.76c0 29.696-24.149 53.803-53.803 53.803zM650.044 501.751c-29.653 0-53.803-24.107-53.803-53.803 0-29.653 24.149-53.76 53.803-53.76s53.803 24.107 53.803 53.76c0 29.696-24.149 53.803-53.803 53.803zM650.044 651.104c29.653 0 53.803 24.107 53.803 53.803 0 29.653-24.149 53.76-53.803 53.76s-53.803-24.107-53.803-53.76c0-29.696 24.149-53.803 53.803-53.803z" />
<glyph unicode="&#xe934;" glyph-name="Barcode-scan-3" d="M628.72 816.64c0 16.966 13.754 30.72 30.72 30.72h51.491c105.034 0 190.169-85.126 190.169-190.132v-64.601c0-16.966-13.75-30.72-30.72-30.72-16.966 0-30.72 13.754-30.72 30.72v64.601c0 71.064-57.614 128.692-128.729 128.692h-51.491c-16.966 0-30.72 13.754-30.72 30.72zM292.572 785.92c-71.114 0-128.732-57.628-128.732-128.692v-64.601c0-16.966-13.754-30.72-30.72-30.72s-30.72 13.754-30.72 30.72v64.601c0 105.006 85.135 190.132 190.172 190.132h52.805c16.966 0 30.72-13.754 30.72-30.72s-13.754-30.72-30.72-30.72h-52.805zM133.12 334.082c16.966 0 30.72-13.754 30.72-30.72v-64.602c0-71.066 57.618-128.692 128.732-128.692h51.49c16.966 0 30.72-13.754 30.72-30.72s-13.754-30.72-30.72-30.72h-51.49c-105.036 0-190.172 85.123-190.172 190.132v64.602c0 16.966 13.754 30.72 30.72 30.72zM870.339 334.082c16.966 0 30.72-13.754 30.72-30.72v-64.602c0-105.009-85.135-190.132-190.173-190.132h-52.806c-16.966 0-30.72 13.754-30.72 30.72s13.754 30.72 30.72 30.72h52.806c71.115 0 128.733 57.627 128.733 128.692v64.602c0 16.966 13.75 30.72 30.72 30.72zM286.72 255.042c0 16.966 13.754 30.72 30.72 30.72h368.64c16.966 0 30.72-13.754 30.72-30.72 0-16.97-13.754-30.72-30.72-30.72h-368.64c-16.966 0-30.72 13.75-30.72 30.72zM286.72 571.297c0 55.453 44.907 100.383 100.343 100.383h229.352c55.415 0 100.385-44.907 100.385-100.383v-97.439c0-55.448-44.982-100.344-100.385-100.344h-229.352c-55.424 0-100.343 44.917-100.343 100.344v97.439zM387.063 610.24c-21.48 0-38.903-17.4-38.903-38.943v-97.439c0-21.492 17.411-38.904 38.903-38.904h229.352c21.516 0 38.945 17.433 38.945 38.904v97.439c0 21.52-17.441 38.943-38.945 38.943h-229.352z" />
<glyph unicode="&#xe935;" glyph-name="Pencil" d="M692.646 457.732c-6.525-0.012-12.886 2.068-18.145 5.939l-225.28 165.438c-6.566 4.845-10.94 12.1-12.157 20.17s0.819 16.292 5.665 22.859c4.846 6.567 12.104 10.94 20.173 12.157s16.29-0.82 22.856-5.665l225.28-165.438c5.214-3.838 9.081-9.22 11.051-15.389 1.97-6.164 1.946-12.792-0.078-18.944-2.019-6.148-5.931-11.502-11.174-15.294s-11.551-5.837-18.026-5.833h-0.164zM310.536 89.682c-28.793 0.115-56.38 11.575-76.782 31.891-20.402 20.32-31.975 47.858-32.213 76.653l-0.655 72.745c-0.325 41.492 12.367 82.047 36.291 115.958l264.804 367.246c19.857 27.206 49.689 45.429 82.96 50.674 33.268 5.244 67.26-2.918 94.519-22.698l71.025-51.773c27.214-19.837 45.429-49.671 50.647-82.939 5.214-33.269-2.998-67.246-22.835-94.459l-261.734-362.945c-25.993-36.782-63.672-63.676-106.906-76.308l-68.279-19.866c-10.033-2.839-20.417-4.243-30.843-4.178zM604.627 745.040c-10.371 0.048-20.607-2.366-29.864-7.045s-17.269-11.487-23.384-19.866l-264.272-366.795c-16.432-23.429-25.099-51.421-24.78-80.036l0.655-72.704c0.065-7.414 1.849-14.709 5.212-21.316 3.363-6.603 8.214-12.337 14.17-16.749s12.854-7.381 20.153-8.671c7.298-1.29 14.797-0.872 21.905 1.229l68.239 19.825c29.895 8.798 55.933 27.451 73.89 52.92l261.898 363.191c5.095 6.956 8.77 14.848 10.809 23.226s2.404 17.075 1.077 25.595c-1.327 8.519-4.325 16.693-8.815 24.053-4.493 7.36-10.396 13.76-17.367 18.835l-71.025 51.773c-11.186 8.137-24.666 12.525-38.502 12.534z" />
<glyph unicode="&#xe936;" glyph-name="Barcode-scan-1" d="M628.72 816.64c0 16.966 13.754 30.72 30.72 30.72h51.491c105.034 0 190.169-85.126 190.169-190.132v-64.601c0-16.966-13.75-30.72-30.72-30.72-16.966 0-30.72 13.754-30.72 30.72v64.601c0 71.064-57.614 128.692-128.729 128.692h-51.491c-16.966 0-30.72 13.754-30.72 30.72zM292.572 785.92c-71.114 0-128.732-57.628-128.732-128.692v-64.601c0-16.966-13.754-30.72-30.72-30.72s-30.72 13.754-30.72 30.72v64.601c0 105.006 85.135 190.132 190.172 190.132h52.805c16.966 0 30.72-13.754 30.72-30.72s-13.754-30.72-30.72-30.72h-52.805zM133.12 334.082c16.966 0 30.72-13.754 30.72-30.72v-64.602c0-71.066 57.618-128.692 128.732-128.692h51.49c16.966 0 30.72-13.754 30.72-30.72s-13.754-30.72-30.72-30.72h-51.49c-105.036 0-190.172 85.123-190.172 190.132v64.602c0 16.966 13.754 30.72 30.72 30.72zM870.416 334.082c16.966 0 30.72-13.754 30.72-30.72v-64.602c0-105.009-85.135-190.132-190.173-190.132h-52.802c-16.97 0-30.72 13.754-30.72 30.72s13.75 30.72 30.72 30.72h52.802c71.115 0 128.733 57.627 128.733 128.692v64.602c0 16.966 13.754 30.72 30.72 30.72zM436.318 631.68c16.97 0 30.72-13.754 30.72-30.72v-305.991c0-16.966-13.75-30.72-30.72-30.72-16.966 0-30.718 13.754-30.718 30.72v305.991c0 16.966 13.753 30.72 30.718 30.72zM698.319 631.68c16.966 0 30.72-13.754 30.72-30.72v-305.991c0-16.966-13.754-30.72-30.72-30.72s-30.72 13.754-30.72 30.72v305.991c0 16.966 13.754 30.72 30.72 30.72zM305.28 631.68c16.966 0 30.72-13.754 30.72-30.72v-255.696c0-16.966-13.754-30.72-30.72-30.72s-30.72 13.754-30.72 30.72v255.696c0 16.966 13.754 30.72 30.72 30.72zM567.28 631.68c16.966 0 30.72-13.754 30.72-30.72v-173.043c0-16.966-13.754-30.72-30.72-30.72s-30.72 13.754-30.72 30.72v173.043c0 16.966 13.754 30.72 30.72 30.72z" />
<glyph unicode="&#xe937;" glyph-name="Phone-Call-Ringing" d="M696.795 48.722c-95.437 0-219.628 75.776-369.048 225.28-150.077 150.036-225.935 274.43-225.28 370.195-0.398 20.333 3.518 40.518 11.489 59.228s19.816 35.517 34.755 49.316c0.696 0.901 2.825 2.908 3.604 3.686 55.091 55.091 91.013 76.595 129.597 76.882 43.418-0.532 73.973-32.768 112.599-73.4 9.462-9.912 19.742-20.766 31.129-32.153 19.808-17.922 32.866-42.096 36.995-68.486s-0.918-53.397-14.303-76.512c-16.384-42.066-30.638-78.441 39.567-148.646s106.496-55.906 148.603-39.481c23.097 13.427 50.102 18.514 76.501 14.402 26.395-4.108 50.577-17.162 68.497-36.97 11.264-11.264 21.955-21.422 31.785-30.761 40.96-38.912 73.155-69.632 73.728-113.136 0.492-36.86-21.75-74.461-76.718-129.43l-3.973-3.891c-13.799-14.963-30.622-26.821-49.345-34.8-18.727-7.979-38.928-11.895-59.281-11.485l-0.901 0.164zM195.896 713.091c0 0-1.842-1.966-4.095-4.383-9.133-8.11-16.359-18.14-21.16-29.372s-7.059-23.385-6.611-35.591c-0.328-54.026 35.389-154.499 207.339-326.367 171.089-171.090 271.441-207.217 325.631-207.217h0.655c12.222-0.442 24.388 1.823 35.635 6.631 11.244 4.805 21.287 12.038 29.409 21.18 2.154 2.249 4.424 4.379 6.799 6.39 37.192 37.478 56.402 65.536 56.156 82.944s-23.020 39.322-54.6 69.386c-10.158 9.667-21.217 20.193-32.768 31.826-28.672 28.672-44.524 22.442-79.135 8.884-48.865-19.251-115.794-45.502-214.467 53.252-98.671 98.632-72.457 165.599-53.246 214.505 13.558 34.652 19.782 50.463-8.889 79.176-11.796 11.796-22.446 22.979-32.235 33.3-29.819 31.334-51.364 54.026-68.895 54.231h-0.86c-17.613 0-45.425-19.251-85.074-58.859l0.409 0.082zM870.384 493.629h-83.558c-8.147 0-15.962 3.236-21.721 8.995-5.763 5.763-8.999 13.574-8.999 21.725 0 8.145 3.236 15.959 8.999 21.72 5.759 5.761 13.574 8.998 21.721 8.998h83.558c8.147 0 15.962-3.237 21.725-8.998 5.759-5.761 8.995-13.575 8.995-21.72 0-8.151-3.236-15.962-8.995-21.725-5.763-5.759-13.578-8.995-21.725-8.995zM727.474 643.090c-6.074-0.002-12.014 1.796-17.068 5.169-5.050 3.373-8.991 8.169-11.321 13.78-2.327 5.612-2.937 11.787-1.757 17.747 1.184 5.96 4.104 11.435 8.397 15.733l59.105 59.064c5.825 5.426 13.525 8.38 21.484 8.24s15.557-3.364 21.185-8.993c5.628-5.629 8.851-13.222 8.991-21.18s-2.814-15.661-8.241-21.485l-59.064-59.105c-2.847-2.852-6.234-5.112-9.957-6.652-3.727-1.539-7.721-2.327-11.751-2.319zM578.011 702.441c-8.147 0-15.958 3.237-21.721 8.998s-8.999 13.575-8.999 21.722v83.558c0 8.148 3.236 15.961 8.999 21.722s13.574 8.998 21.721 8.998c8.147 0 15.962-3.237 21.725-8.998 5.759-5.761 8.995-13.575 8.995-21.722v-83.558c0-8.147-3.236-15.961-8.995-21.722-5.763-5.761-13.578-8.998-21.725-8.998z" />
<glyph unicode="&#xe938;" glyph-name="Barcode-scan-5" d="M182.969 709.53c-24.588-26.407-39.609-65.214-39.609-113.638v-295.688c0-48.427 15.020-87.233 39.612-113.639 24.362-26.157 60.387-42.631 107.653-42.631h422.353c47.243 0 83.243 16.47 107.59 42.627 24.58 26.407 39.592 65.212 39.592 113.644v295.688c0 48.39-15.073 87.202-39.703 113.627-24.408 26.185-60.428 42.641-107.479 42.641h-422.395c-47.242 0-83.257-16.47-107.615-42.63zM138.003 751.399c37.197 39.949 90.154 62.201 152.58 62.201h422.395c62.28 0 115.212-22.267 152.424-62.19 36.987-39.684 56.197-94.365 56.197-155.518v-295.688c0-61.112-19.104-115.802-56.058-155.505-37.188-39.952-90.137-62.206-152.564-62.206h-422.353c-62.444 0-115.412 22.254-152.615 62.202-36.973 39.703-56.090 94.388-56.090 155.509v295.688c0 61.118 19.117 115.805 56.083 155.506zM287.76 641.44c16.966 0 30.72-13.754 30.72-30.72v-325.221c0-16.966-13.754-30.72-30.72-30.72s-30.72 13.754-30.72 30.72v325.221c0 16.966 13.754 30.72 30.72 30.72zM573.039 641.44c16.966 0 30.72-13.754 30.72-30.72v-325.221c0-16.966-13.754-30.72-30.72-30.72s-30.72 13.754-30.72 30.72v325.221c0 16.966 13.754 30.72 30.72 30.72zM715.76 641.44c16.966 0 30.72-13.754 30.72-30.72v-155.27c0-16.966-13.754-30.72-30.72-30.72s-30.72 13.754-30.72 30.72v155.27c0 16.966 13.754 30.72 30.72 30.72zM715.76 360.96c16.966 0 30.72-13.754 30.72-30.72v-40.931c0-16.966-13.754-30.72-30.72-30.72s-30.72 13.754-30.72 30.72v40.931c0 16.966 13.754 30.72 30.72 30.72zM430.399 475.202c16.966 0 30.72-13.754 30.72-30.72v-155.271c0-16.966-13.754-30.72-30.72-30.72s-30.72 13.754-30.72 30.72v155.271c0 16.966 13.754 30.72 30.72 30.72zM430.399 641.28c16.966 0 30.72-13.754 30.72-30.72v-40.931c0-16.966-13.754-30.72-30.72-30.72s-30.72 13.754-30.72 30.72v40.931c0 16.966 13.754 30.72 30.72 30.72z" />
<glyph unicode="&#xe939;" glyph-name="Barcode-scan-4" d="M331.92 626.24c16.966 0 30.72-13.754 30.72-30.72v-295.23c0-16.966-13.754-30.72-30.72-30.72s-30.72 13.754-30.72 30.72v295.23c0 16.966 13.754 30.72 30.72 30.72zM558.24 626.24c16.966 0 30.72-13.754 30.72-30.72v-295.23c0-16.966-13.754-30.72-30.72-30.72s-30.72 13.754-30.72 30.72v295.23c0 16.966 13.754 30.72 30.72 30.72zM671.441 626.24c16.966 0 30.72-13.754 30.72-30.72v-140.921c0-16.966-13.754-30.72-30.72-30.72s-30.72 13.754-30.72 30.72v140.921c0 16.966 13.754 30.72 30.72 30.72zM671.441 371.839c16.966 0 30.72-13.754 30.72-30.72v-37.143c0-16.966-13.754-30.72-30.72-30.72s-30.72 13.754-30.72 30.72v37.143c0 16.966 13.754 30.72 30.72 30.72zM445.121 475.521c16.966 0 30.72-13.754 30.72-30.72v-140.923c0-16.966-13.754-30.72-30.72-30.72s-30.72 13.754-30.72 30.72v140.923c0 16.966 13.754 30.72 30.72 30.72zM445.121 626.24c16.966 0 30.72-13.754 30.72-30.72v-37.143c0-16.966-13.754-30.718-30.72-30.718s-30.72 13.752-30.72 30.718v37.143c0 16.966 13.754 30.72 30.72 30.72zM501.76 785.92c-186.643 0-337.92-151.277-337.92-337.92s151.277-337.92 337.92-337.92c186.642 0 337.92 151.278 337.92 337.92s-151.278 337.92-337.92 337.92zM102.4 448c0 220.575 178.785 399.36 399.36 399.36s399.36-178.785 399.36-399.36c0-220.574-178.786-399.36-399.36-399.36s-399.36 178.786-399.36 399.36z" />
<glyph unicode="&#xe93a;" glyph-name="Profile" d="M846.502 183.761c0-140.629-192.853-156.885-337.877-156.885l-10.378 0.009c-92.397 0.224-327.585 6.058-327.585 157.73 0 137.759 185.103 156.17 329.023 156.864l19.317 0.012c92.391-0.224 327.5-6.058 327.5-157.73zM508.625 277.5c-181.803 0-273.963-31.232-273.963-92.885 0-62.208 92.16-93.739 273.963-93.739 181.76 0 273.877 31.232 273.877 92.885 0 62.208-92.117 93.739-273.877 93.739zM508.625 874.679c124.928 0 226.517-101.632 226.517-226.56s-101.589-226.517-226.517-226.517h-1.365c-124.672 0.384-225.664 102.059-225.239 226.645 0 124.8 101.633 226.432 226.604 226.432zM508.625 813.751c-91.349 0-165.676-74.283-165.676-165.632-0.298-91.051 73.473-165.291 164.438-165.632l1.237-30.464v30.464c91.307 0 165.589 74.325 165.589 165.632 0 91.349-74.283 165.632-165.589 165.632z" />
<glyph unicode="&#xe93b;" glyph-name="Bank-Card-information" d="M154.482 726.723c34.518 37.031 83.561 57.597 141.062 57.597h412.474c57.639 0 106.709-20.552 141.214-57.609 34.275-36.81 51.892-87.409 51.892-143.743v-269.816c0-56.353-17.617-106.955-51.9-143.761-34.517-37.057-83.595-57.59-141.246-57.59h-412.433c-57.634 0-106.695 20.537-141.194 57.594-34.267 36.811-51.87 87.413-51.87 143.757v269.816c0 56.369 17.708 106.963 52.002 143.755zM199.426 684.83c-21.932-23.529-35.506-58.252-35.506-101.863v-269.816c0-43.676 13.52-78.389 35.399-101.892 21.648-23.253 53.758-38.019 96.225-38.019h412.433c42.492 0 74.625 14.77 96.285 38.027 21.893 23.503 35.422 58.216 35.422 101.884v269.816c0 43.647-13.525 78.363-35.418 101.874-21.664 23.264-53.785 38.038-96.248 38.038h-412.474c-42.281 0-74.41-14.76-96.118-38.050zM102.4 565.76c0 16.966 13.754 30.72 30.72 30.72h737.202c16.966 0 30.72-13.754 30.72-30.72s-13.754-30.72-30.72-30.72h-737.202c-16.966 0-30.72 13.754-30.72 30.72zM242.88 307.2c0 16.966 13.754 30.72 30.72 30.72h139.789c16.966 0 30.72-13.754 30.72-30.72s-13.754-30.72-30.72-30.72h-139.789c-16.966 0-30.72 13.754-30.72 30.72zM242.88 418.722c0 16.966 13.754 30.72 30.72 30.72h103.806c16.966 0 30.72-13.754 30.72-30.72 0-16.97-13.754-30.72-30.72-30.72h-103.806c-16.966 0-30.72 13.75-30.72 30.72zM565.961 388.633c0 39.322 31.883 71.209 71.205 71.209h52.244c39.318 0 71.205-31.887 71.205-71.209v-51.286c0-39.322-31.887-71.205-71.205-71.205h-52.244c-39.322 0-71.205 31.883-71.205 71.205v51.286zM637.166 398.402c-5.386 0-9.765-4.379-9.765-9.769v-51.286c0-5.386 4.379-9.765 9.765-9.765h52.244c5.386 0 9.765 4.379 9.765 9.765v51.286c0 5.39-4.379 9.769-9.765 9.769h-52.244z" />
<glyph unicode="&#xe93c;" glyph-name="Ringtone-3" d="M704.336 163.271h-405.096c-19.401-0.004-38.489 4.895-55.492 14.238s-31.37 22.831-41.768 39.211c-10.398 16.38-16.49 35.119-17.711 54.481-1.221 19.366 2.469 38.724 10.728 56.279l17.245 36.864c10.333 22.020 15.702 46.043 15.729 70.369v48.66c0.881 72.024 30.111 140.8 81.354 191.42s120.371 79.007 192.403 79.007c72.028 0 141.156-28.387 192.401-79.007 51.241-50.62 80.474-119.396 81.355-191.42v-48.824c0.033-24.322 5.386-48.341 15.688-70.369l17.285-36.864c8.278-17.555 11.985-36.917 10.772-56.283-1.208-19.37-7.295-38.121-17.691-54.51s-24.764-29.88-41.775-39.227c-17.007-9.347-36.102-14.242-55.509-14.23l0.082 0.205zM501.789 695.75c-56.291-0.065-110.254-22.452-150.060-62.249s-62.203-93.759-62.279-150.045v-48.824c-0.034-33.374-7.403-66.335-21.586-96.543l-17.203-36.618c-3.869-8.192-5.604-17.228-5.043-26.268s3.4-17.789 8.252-25.436c4.852-7.651 11.56-13.947 19.5-18.305s16.853-6.64 25.91-6.627h405.096c9.048 0.008 17.949 2.302 25.874 6.668 7.93 4.366 14.627 10.658 19.472 18.301 4.85 7.639 7.692 16.384 8.262 25.412 0.573 9.032-1.147 18.063-4.989 26.255l-17.244 36.618c-14.189 30.224-21.557 63.197-21.586 96.584v48.66c-0.057 56.304-22.45 110.288-62.267 150.098s-93.807 62.194-150.11 62.237v0.082zM501.768 48.55c-38.547 0.057-75.502 15.393-102.76 42.652-27.257 27.255-42.594 64.209-42.648 102.76 0 8.147 3.236 15.958 8.997 21.721 5.761 5.759 13.575 8.999 21.723 8.999s15.961-3.24 21.722-8.999c5.762-5.763 8.998-13.574 8.998-21.721 0-22.27 8.847-43.631 24.592-59.376 15.749-15.749 37.106-24.596 59.376-24.596s43.626 8.847 59.376 24.596c15.745 15.745 24.592 37.106 24.592 59.376 0 8.147 3.236 15.958 8.999 21.721 5.759 5.759 13.574 8.999 21.721 8.999s15.962-3.24 21.721-8.999c5.763-5.763 8.999-13.574 8.999-21.721-0.053-38.552-15.393-75.506-42.648-102.76-27.259-27.259-64.213-42.594-102.76-42.652zM567.321 686.938c-8.147 0-15.962 3.237-21.721 8.998-5.763 5.761-8.999 13.575-8.999 21.722v33.341c0 9.283-3.686 18.185-10.252 24.749-6.562 6.564-15.466 10.251-24.748 10.251s-18.186-3.688-24.748-10.251c-6.566-6.564-10.252-15.466-10.252-24.749v-33.178c0-8.147-3.236-15.961-8.999-21.722-5.759-5.761-13.574-8.998-21.721-8.998s-15.962 3.237-21.721 8.998c-5.763 5.761-8.999 13.575-8.999 21.722v33.178c0 25.578 10.162 50.108 28.246 68.193 18.088 18.086 42.615 28.247 68.194 28.247 25.575 0 50.106-10.161 68.194-28.247 18.084-18.086 28.246-42.616 28.246-68.193v-33.178c0.020-4.048-0.758-8.060-2.29-11.806-1.536-3.746-3.797-7.152-6.652-10.022s-6.246-5.147-9.986-6.701c-3.736-1.554-7.746-2.354-11.792-2.354z" />
<glyph unicode="&#xe93d;" glyph-name="Barcode-scan" d="M698.159 496.161c0 16.966 13.754 30.72 30.72 30.72h48.062c16.966 0 30.72-13.754 30.72-30.72v-96.125c0-16.966-13.754-30.72-30.72-30.72h-48.062c-16.966 0-30.72 13.754-30.72 30.72v96.125zM577.52 526.881c16.966 0 30.72-13.754 30.72-30.72v-96.125c0-16.966-13.754-30.72-30.72-30.72s-30.72 13.754-30.72 30.72v96.125c0 16.966 13.754 30.72 30.72 30.72zM347.28 496.161c0 16.966 13.754 30.72 30.72 30.72h48.062c16.966 0 30.72-13.754 30.72-30.72v-96.125c0-16.966-13.754-30.72-30.72-30.72h-48.062c-16.966 0-30.72 13.754-30.72 30.72v96.125zM226.64 526.881c16.966 0 30.72-13.754 30.72-30.72v-96.125c0-16.966-13.754-30.72-30.72-30.72s-30.72 13.754-30.72 30.72v96.125c0 16.966 13.754 30.72 30.72 30.72zM628.72 816.64c0 16.966 13.754 30.72 30.72 30.72h51.491c105.042 0 190.169-85.13 190.169-190.172v-44.237c0-16.966-13.75-30.72-30.72-30.72-16.966 0-30.72 13.754-30.72 30.72v44.237c0 71.109-57.623 128.732-128.729 128.732h-51.491c-16.966 0-30.72 13.754-30.72 30.72zM292.572 785.92c-71.109 0-128.732-57.623-128.732-128.732v-44.237c0-16.966-13.754-30.72-30.72-30.72s-30.72 13.754-30.72 30.72v44.237c0 105.041 85.13 190.172 190.172 190.172h52.805c16.966 0 30.72-13.754 30.72-30.72s-13.754-30.72-30.72-30.72h-52.805zM133.12 313.762c16.966 0 30.72-13.754 30.72-30.72v-44.237c0-71.111 57.623-128.733 128.732-128.733h51.49c16.966 0 30.72-13.754 30.72-30.72s-13.754-30.72-30.72-30.72h-51.49c-105.041 0-190.172 85.131-190.172 190.173v44.237c0 16.966 13.754 30.72 30.72 30.72zM870.416 313.762c16.966 0 30.72-13.754 30.72-30.72v-44.237c0-105.042-85.131-190.173-190.173-190.173h-52.802c-16.97 0-30.72 13.754-30.72 30.72s13.75 30.72 30.72 30.72h52.802c71.111 0 128.733 57.623 128.733 128.733v44.237c0 16.966 13.754 30.72 30.72 30.72z" />
<glyph unicode="&#xe93e;" glyph-name="Pin" d="M501.744 785.92c-153.284 0-277.544-124.255-277.544-277.582 0-98.447 58.785-198.554 127.878-276.345 34.091-38.384 69.515-69.988 98.949-91.75 14.75-10.908 27.533-19.001 37.519-24.216 7.684-4.010 11.854-5.317 13.197-5.743 1.339 0.426 5.513 1.733 13.193 5.743 9.986 5.214 22.77 13.308 37.523 24.216 29.43 21.762 64.856 53.367 98.947 91.75 69.091 77.791 127.877 177.897 127.877 276.345 0 153.327-124.26 277.582-277.541 277.582zM162.76 508.338c0 187.255 151.762 339.022 338.984 339.022 187.22 0 338.981-151.767 338.981-339.022 0-120.906-70.676-235.287-143.38-317.145-36.807-41.443-75.362-75.956-108.356-100.352-16.462-12.173-32.002-22.172-45.621-29.278-12.128-6.332-27.369-12.923-41.624-12.923s-29.495 6.59-41.628 12.923c-13.619 7.107-29.155 17.105-45.617 29.278-32.993 24.396-71.55 58.909-108.358 100.352-72.704 81.859-143.381 196.239-143.381 317.145zM368.252 510.935c0 73.726 59.752 133.463 133.5 133.463 73.716 0 133.46-59.744 133.46-133.463 0-73.699-59.728-133.501-133.46-133.501-73.765 0-133.5 59.793-133.5 133.501zM501.752 582.958c-39.83 0-72.061-32.244-72.061-72.023 0-39.789 32.244-72.061 72.061-72.061 39.768 0 72.020 32.264 72.020 72.061 0 39.786-32.236 72.023-72.020 72.023z" />
<glyph unicode="&#xe93f;" glyph-name="plane-fly" d="M760.873 316.543h-0.246c-136.724 0-298.226 0.532-459.077 3.441-124.314 2.212-198.82 79.053-199.23 205.578 0 9.46 0.287 45.054 0.369 56.974 0.247 7.896 3.522 15.394 9.146 20.94s13.168 8.717 21.066 8.854c7.898 0.137 15.546-2.77 21.36-8.119s9.347-12.728 9.868-20.611c0-7.25-0.204-21.012-0.286-33.587h80.281c29.696 0 59.556 0 84.705 0l1.844 224.543c0.038 4.164 0.919 8.278 2.594 12.091s4.107 7.247 7.148 10.092c3.041 2.846 6.628 5.044 10.544 6.462s8.078 2.026 12.236 1.787c8.561-0.492 16.958-0.778 25.273-1.065 19.423-0.229 38.812-1.72 58.043-4.465 18.633-3.807 36.020-12.213 50.577-24.452s25.825-27.926 32.772-45.63c29.041-59.884 57.922-119.767 85.406-180.224-0.983-1.556-0.004-1.925 3.109-1.761 52.142 0.86 95.601 1.229 141.025-1.188 44.671-0.634 87.314-18.75 118.784-50.461 8.966-10.789 15.553-23.351 19.329-36.86s4.657-27.664 2.585-41.538c-8.888-69.304-78.356-100.803-139.223-100.803zM166.955 488.575c11.837-68.895 58.245-105.759 135.864-107.151 160.398-2.908 321.534-3.359 458.054-3.441 29.123 0 73.728 12.534 78.316 47.186 0.991 5.489 0.774 11.133-0.639 16.531-1.417 5.394-3.994 10.42-7.549 14.721-20.455 18.649-47.198 28.893-74.875 28.672-43.459 2.335-86.020 1.966-136.729 1.106-12.71-0.893-25.375 2.281-36.159 9.060-10.789 6.783-19.141 16.822-23.847 28.664-27.32 60.128-55.947 119.561-84.824 178.912-14.008 28.918-27.734 34.611-38.097 36.332-14.77 2.041-29.652 3.163-44.562 3.359l-1.844-223.394c-0.065-8.106-3.33-15.856-9.084-21.565-5.754-5.706-13.531-8.909-21.636-8.909v0c-29.082 0-72.171 0-114.688 0-27.525-0.082-54.272-0.082-77.865-0.082h0.164zM778.412 90.96h-553.372c-8.147 0-15.961 3.236-21.722 8.999-5.761 5.759-8.998 13.574-8.998 21.721s3.236 15.962 8.998 21.721c5.761 5.763 13.575 8.999 21.722 8.999h553.372c8.147 0 15.958-3.236 21.721-8.999 5.759-5.759 8.999-13.574 8.999-21.721s-3.24-15.962-8.999-21.721c-5.763-5.763-13.574-8.999-21.721-8.999z" />
<glyph unicode="&#xe940;" glyph-name="Empty-battery" d="M182.64 662.759c36.395 34.898 87.084 51.161 144.827 51.161h299.471c57.741 0 108.478-16.605 144.876-52.035 36.532-35.561 54.751-86.317 54.751-146.793v-137.224c0-59.781-18.313-109.867-54.968-144.859-36.434-34.783-87.101-50.938-144.658-50.938h-299.79c-57.688 0-108.389 16.142-144.769 50.967-36.592 35.029-54.707 85.135-54.538 144.876v139.887c0 59.722 18.205 109.87 54.799 144.959zM225.163 618.411c-21.785-20.888-35.882-53.439-35.882-100.611v-140.022c-0.14-47.17 13.888-79.585 35.584-100.356 21.918-20.98 55.67-33.911 102.283-33.911h299.79c46.428 0 80.212 12.915 102.232 33.939 21.803 20.816 35.955 53.273 35.955 100.418v137.224c0 48.127-14.242 81.425-36.168 102.767-22.061 21.473-55.779 34.621-102.019 34.621h-299.471c-46.558 0-80.321-12.99-102.304-34.069zM758.878 568.24c0 16.966 13.754 30.72 30.72 30.72h32.764c32.571 0 61.284-9.543 80.654-33.604 18.215-22.623 23.556-52.619 23.556-83.085v-69.984c0-30.069-5.37-59.777-23.736-82.153-19.448-23.687-48.116-32.94-80.474-32.94h-32.444c-16.966 0-30.72 13.754-30.72 30.72s13.754 30.72 30.72 30.72h32.444c20.922 0 29.004 5.632 32.985 10.482 5.054 6.16 9.785 18.641 9.785 43.172v69.984c0 25.096-4.76 38.081-9.97 44.552-4.055 5.035-12.087 10.697-32.801 10.697h-32.764c-16.966 0-30.72 13.754-30.72 30.72z" />
<glyph unicode="&#xe941;" glyph-name="User-information" d="M207.124 693.686c-22.961-24.61-37.124-60.86-37.124-106.274v-279.29c0-45.253 14.084-81.408 36.991-105.959 22.682-24.314 56.267-39.711 100.469-39.711h400.882c44.405 0 77.98 15.413 100.61 39.698 22.86 24.531 36.889 60.678 36.889 105.972v279.29c0 45.499-14.045 81.748-36.876 106.322-22.589 24.318-56.070 39.706-100.266 39.706h-401.238c-43.998 0-77.593-15.379-100.336-39.754zM162.201 735.6c35.543 38.094 86.037 59.28 145.259 59.28h401.238c59.384 0 109.834-21.177 145.281-59.329 35.205-37.895 53.301-90.020 53.301-148.14v-279.29c0-57.967-18.113-110.010-53.379-147.857-35.496-38.097-86.028-59.253-145.56-59.253h-400.882c-59.376 0-109.881 21.172-145.394 59.236-35.289 37.827-53.505 89.87-53.505 147.874v279.29c0 58.205 18.317 110.328 53.641 148.188zM318.36 320.287c-12.244-11.092-16.92-24.916-16.92-36.835 0-16.97-13.754-30.72-30.72-30.72s-30.72 13.75-30.72 30.72c0 27.894 11.026 58.741 37.111 82.371 26.159 23.699 64.677 37.7 115.519 37.7 50.786 0 89.289-13.881 115.462-37.466 26.124-23.544 37.167-54.329 37.167-82.248 0-16.966-13.754-30.72-30.72-30.72s-30.72 13.754-30.72 30.72c0 11.899-4.657 25.608-16.859 36.606-12.157 10.957-34.607 21.668-74.33 21.668-39.664 0-62.101-10.768-74.27-21.795zM392.593 581.92c-26.035 0-47.153-21.117-47.153-47.153s21.118-47.151 47.153-47.151c26.035 0 47.154 21.115 47.154 47.151s-21.119 47.153-47.154 47.153zM284 534.767c0 59.967 48.625 108.593 108.593 108.593 59.966 0 108.594-48.625 108.594-108.593s-48.628-108.591-108.594-108.591c-59.967 0-108.593 48.624-108.593 108.591zM564.085 516.1c0.229 16.966 14.172 30.53 31.138 30.297l142.234-1.953c16.966-0.233 30.527-14.174 30.298-31.138-0.233-16.966-14.176-30.527-31.142-30.298l-142.234 1.954c-16.966 0.233-30.527 14.176-30.294 31.138zM617.398 364.048c0 16.966 13.754 30.72 30.72 30.72h88.912c16.966 0 30.72-13.754 30.72-30.72s-13.754-30.72-30.72-30.72h-88.912c-16.966 0-30.72 13.754-30.72 30.72z" />
</font>
</defs>
</svg>
